<?xml version="1.0" standalone="no"?>
<!DOCTYPE svg PUBLIC "-//W3C//DTD SVG 20010904//EN"
 "http://www.w3.org/TR/2001/REC-SVG-20010904/DTD/svg10.dtd">
<svg version="1.0" xmlns="http://www.w3.org/2000/svg"
 width="1024.000000pt" height="1024.000000pt" viewBox="0 0 1024.000000 1024.000000"
 preserveAspectRatio="xMidYMid meet">
<metadata>
Created by potrace 1.14, written by Peter Selinger 2001-2017
</metadata>
<g transform="translate(0.000000,1024.000000) scale(0.100000,-0.100000)"
fill="#000000" stroke="none">
<path d="M5280 9731 c0 -4 21 -28 48 -52 l47 -44 -190 -2 c-119 -1 -214 -7
-255 -16 l-65 -14 70 -7 c338 -35 545 -92 686 -190 33 -22 72 -48 87 -56 15
-8 47 -27 72 -41 86 -49 85 -40 -7 53 -108 109 -183 201 -225 275 -32 56 -39
60 -153 82 -96 18 -115 20 -115 12z"/>
<path d="M4029 9623 c22 -32 70 -87 105 -122 l65 -65 -132 -27 c-73 -15 -179
-43 -236 -62 l-104 -35 84 -7 c46 -3 152 -23 234 -42 83 -20 193 -46 245 -58
l95 -22 -349 -8 c-513 -11 -632 -3 -913 64 -40 10 -73 16 -73 14 0 -2 15 -17
33 -33 58 -54 150 -117 235 -160 45 -23 82 -45 82 -48 0 -4 -33 -22 -74 -40
-90 -41 -234 -133 -331 -212 -197 -161 -384 -422 -439 -612 -21 -74 -21 -76
12 -46 31 28 117 88 127 88 4 0 -8 -17 -27 -38 -119 -132 -208 -334 -233 -532
l-7 -55 32 38 c32 38 178 152 186 145 2 -3 -10 -43 -26 -89 -54 -156 -63 -217
-64 -424 0 -144 4 -211 17 -277 15 -74 17 -102 8 -182 -6 -53 -11 -114 -11
-136 l0 -41 78 71 c43 39 93 81 110 92 l32 20 0 -40 c0 -56 18 -185 36 -254
l14 -57 -49 -65 c-34 -45 -59 -92 -78 -148 -26 -78 -27 -93 -28 -268 0 -142 4
-205 18 -270 88 -414 303 -689 602 -771 63 -17 97 -20 162 -16 l82 5 47 -87
c102 -189 261 -396 377 -492 36 -30 66 -60 66 -66 1 -7 -11 -15 -26 -19 -169
-38 -472 -144 -637 -223 -195 -94 -270 -180 -298 -339 -11 -64 -14 -69 -53
-93 -51 -32 -85 -96 -85 -161 0 -42 -4 -48 -46 -83 -26 -21 -62 -62 -80 -91
-19 -29 -52 -68 -75 -86 -58 -46 -69 -75 -76 -189 l-6 -101 -116 -81 c-160
-114 -237 -189 -325 -320 -71 -107 -202 -355 -247 -469 -106 -267 -215 -655
-258 -918 -24 -145 -51 -368 -51 -422 l0 -38 3451 0 3452 0 -6 108 c-8 153
-51 412 -98 602 -75 296 -148 526 -222 695 -124 283 -240 486 -335 583 -57 57
-194 167 -279 224 l-63 42 0 94 c0 51 -5 103 -11 115 -6 12 -36 47 -68 77 -31
31 -72 79 -91 108 -19 28 -52 64 -72 78 -34 24 -38 31 -38 71 0 24 -9 61 -19
82 -19 37 -76 94 -102 103 -7 2 -15 33 -20 76 -15 140 -93 232 -276 325 -173
88 -337 146 -611 218 l-83 21 113 112 c155 152 276 320 356 492 l24 50 84 -4
c145 -8 284 39 421 142 218 164 373 548 373 920 0 203 -29 308 -116 418 l-45
57 17 68 c8 37 18 116 21 176 3 61 10 107 16 107 10 0 110 -85 171 -146 l36
-36 0 54 c0 29 -5 95 -10 147 -8 75 -7 112 6 189 22 126 15 337 -14 437 -11
38 -19 71 -18 72 6 7 60 -43 86 -79 l29 -39 6 44 c9 58 -12 263 -36 360 -45
179 -118 333 -218 462 -26 33 -51 66 -55 73 -5 9 10 32 44 68 54 57 97 138
107 201 l6 38 -31 -41 c-75 -102 -192 -165 -317 -172 -44 -2 -96 0 -115 5
l-35 10 43 13 44 14 -36 14 c-34 13 -40 25 -39 70 1 15 -18 15 -92 -2 -33 -8
-61 -13 -63 -12 -1 2 20 24 49 50 38 35 46 46 32 46 -11 0 -22 2 -25 5 -3 3 6
43 19 88 21 71 24 96 20 187 -4 77 -11 122 -29 170 -23 63 -96 185 -105 176
-2 -2 5 -35 17 -73 29 -93 35 -188 21 -340 -8 -91 -20 -150 -39 -203 l-27 -75
-2 45 c-7 129 -50 318 -81 353 -8 9 -11 17 -6 17 5 0 4 4 -2 8 -6 4 -16 21
-22 37 -9 24 -10 14 -5 -52 7 -96 -9 -114 -26 -30 -31 146 -109 310 -207 438
-44 58 -163 173 -198 191 -18 10 -18 8 2 -23 48 -78 119 -239 106 -239 -3 0
-32 20 -64 45 -139 107 -319 201 -495 258 -100 33 -246 69 -252 64 -8 -9 149
-98 321 -181 374 -180 591 -361 706 -586 28 -55 100 -255 100 -277 0 -9 -14 4
-32 28 -103 145 -264 275 -445 361 -49 23 -91 46 -94 51 -4 5 -15 7 -25 5 -15
-2 -10 -8 21 -27 49 -30 27 -41 -32 -16 -44 18 -43 17 54 -55 40 -29 71 -55
69 -57 -2 -2 -28 6 -57 18 -30 11 -74 27 -99 35 -66 21 -319 74 -349 74 l-26
-1 30 -14 30 -13 -38 5 c-36 5 -37 5 -29 -18 7 -17 17 -24 38 -25 67 -2 116
-16 121 -35 3 -11 17 -22 32 -25 46 -10 52 -14 45 -25 -3 -6 -9 -7 -13 -3 -9
13 -41 16 -41 4 0 -5 8 -10 18 -11 11 -1 9 -4 -8 -9 -21 -7 -22 -8 -5 -10 17
-2 16 -3 -5 -10 -22 -7 -20 -8 15 -10 22 -1 51 -6 65 -10 17 -6 7 -7 -30 -4
-104 9 -340 11 -340 3 0 -4 21 -12 48 -18 26 -5 58 -15 72 -20 22 -10 20 -10
-10 -4 -19 4 -51 7 -71 6 -27 0 -37 4 -45 21 -7 17 -18 21 -64 22 -469 12
-706 25 -820 44 -126 22 -319 65 -327 74 -3 3 19 3 48 0 32 -3 74 1 104 9 28
8 138 40 245 71 209 60 361 93 477 103 77 6 90 17 26 21 -143 10 -485 61 -478
72 3 4 -50 11 -118 14 -145 8 -332 31 -460 55 l-92 18 90 9 c181 18 809 4 955
-22 26 -4 31 -3 20 5 -8 6 -36 14 -62 17 -45 6 -77 34 -40 34 15 0 15 2 2 10
-10 6 -11 10 -2 10 6 0 12 5 12 10 0 6 -7 10 -15 10 -8 0 -23 4 -33 9 -63 33
-261 81 -502 121 -233 38 -365 70 -476 115 -48 19 -92 35 -97 35 -4 0 10 -26
32 -57z m274 -480 c-29 -2 -77 -2 -105 0 -29 2 -6 3 52 3 58 0 81 -1 53 -3z
m228 -73 c-36 -9 -176 -22 -151 -14 23 7 131 22 160 22 19 0 17 -2 -9 -8z
m-172 -24 c-2 -2 -17 -6 -34 -10 -22 -5 -26 -4 -15 4 14 9 59 15 49 6z m-789
-149 c-238 -120 -385 -218 -674 -451 -93 -75 -171 -134 -173 -132 -9 9 137
187 222 272 89 88 227 190 327 240 122 62 360 142 423 143 11 1 -45 -32 -125
-72z m315 13 c-3 -5 -10 -10 -15 -10 -17 0 -158 -70 -170 -85 -17 -20 -6 -19
83 4 111 30 278 64 283 58 3 -3 -14 -8 -37 -12 -23 -4 -72 -17 -108 -30 -36
-12 -109 -33 -161 -46 -64 -16 -87 -25 -70 -28 19 -3 12 -7 -30 -17 -67 -16
-87 -17 -75 -5 6 5 26 11 45 14 l35 4 -36 1 c-24 1 -44 -5 -60 -19 -15 -13
-25 -16 -28 -8 -2 6 0 14 5 18 16 11 40 45 27 37 -7 -4 -13 -4 -13 -1 0 10
167 85 245 111 80 26 89 28 80 14z m2172 -96 c-3 -3 -12 -4 -19 -1 -8 3 -5 6
6 6 11 1 17 -2 13 -5z m-367 -44 c-13 -8 -12 -10 5 -11 l20 0 -20 -9 c-18 -8
-18 -9 5 -10 l25 -2 -25 -8 c-23 -7 -23 -8 -3 -9 22 -1 44 -21 23 -21 -8 0 -8
-6 0 -20 6 -11 17 -20 25 -20 18 0 20 -16 3 -23 -7 -3 5 -6 27 -7 l40 -2 -50
-9 c-27 -5 -117 -13 -200 -19 -82 -6 -160 -13 -172 -15 -36 -8 -26 -25 15 -25
30 -1 34 -2 19 -11 -11 -6 -28 -7 -44 -2 -19 7 -44 3 -95 -15 -38 -14 -66 -27
-64 -30 3 -3 -9 -12 -26 -22 -38 -20 -48 -40 -19 -40 12 0 21 4 21 9 0 5 10 7
22 3 13 -3 19 -1 15 5 -4 7 0 9 11 6 10 -2 49 3 88 12 96 23 274 39 274 25 0
-4 -25 -13 -56 -20 -31 -8 -63 -20 -71 -28 -7 -8 -23 -12 -33 -9 -11 3 -18 1
-14 -4 3 -5 -7 -9 -23 -10 -15 0 -53 -9 -83 -19 -52 -18 -53 -19 -15 -15 22 3
94 9 160 15 66 6 170 16 232 23 61 7 110 10 107 5 -4 -7 -343 -118 -513 -168
-121 -35 -243 -50 -486 -60 -248 -10 -489 -12 -465 -3 83 29 226 89 370 155
233 107 374 166 416 174 19 3 33 9 30 11 -7 7 -119 -17 -133 -29 -6 -5 -20 -9
-30 -8 -10 1 -31 2 -47 1 -23 -1 -27 -5 -23 -20 3 -14 -1 -19 -17 -19 -75 1
-212 -39 -461 -132 -72 -26 -155 -55 -185 -63 -30 -8 -64 -18 -74 -23 -13 -5
-17 -4 -13 3 5 7 -1 9 -15 5 -14 -3 -19 -1 -14 6 5 8 1 10 -11 6 -10 -3 -4 3
12 15 17 12 38 20 48 17 9 -2 14 0 11 5 -6 10 54 39 80 39 9 0 41 12 73 27 32
14 117 46 188 70 72 24 139 48 150 53 11 5 38 14 60 19 39 9 39 9 -25 12 -86
3 -87 3 -96 12 -4 4 2 7 13 7 12 0 23 7 27 15 8 21 -40 20 -244 -5 -175 -21
-474 -40 -462 -28 17 16 317 129 407 153 88 24 111 26 205 21 77 -4 97 -3 75
4 -29 10 -106 12 -285 6 -126 -4 -424 -85 -630 -171 -46 -19 -78 -29 -70 -21
30 30 250 137 328 160 218 66 482 94 578 63 208 -70 405 -77 712 -26 132 22
188 36 176 41 -12 5 -2 6 26 3 26 -3 40 -2 32 3 -8 5 25 9 80 10 64 2 88 -1
78 -8z m-2200 -70 c-8 -5 -19 -10 -25 -10 -5 0 -3 5 5 10 8 5 20 10 25 10 6 0
3 -5 -5 -10z m2017 -156 c-3 -3 -12 -4 -19 -1 -8 3 -5 6 6 6 11 1 17 -2 13 -5z
m-117 -14 c0 -5 -7 -10 -15 -10 -8 0 -15 5 -15 10 0 6 7 10 15 10 8 0 15 -4
15 -10z m40 -10 c-8 -5 -19 -10 -25 -10 -5 0 -3 5 5 10 8 5 20 10 25 10 6 0 3
-5 -5 -10z m47 4 c-3 -3 -12 -4 -19 -1 -8 3 -5 6 6 6 11 1 17 -2 13 -5z m-157
-35 l25 -8 -25 2 c-14 1 -31 -3 -39 -7 -9 -6 -12 -5 -7 2 3 6 -3 12 -16 15
-17 3 -16 4 7 5 17 0 41 -4 55 -9z m1672 -149 c16 -19 47 -71 69 -115 23 -44
46 -86 52 -93 16 -20 157 -86 165 -77 4 3 -2 13 -12 21 -11 8 -16 14 -11 14 5
0 -5 14 -24 30 -18 17 -31 36 -28 44 3 7 -30 59 -73 117 -43 57 -75 105 -70
107 15 5 188 -88 250 -135 151 -113 273 -342 309 -583 7 -41 15 -86 18 -99 4
-18 -24 1 -123 81 -136 110 -213 193 -297 320 -28 42 -52 76 -54 74 -2 -1 10
-29 26 -62 25 -53 41 -120 71 -309 8 -49 19 -247 13 -241 -2 1 -7 27 -13 57
-6 30 -18 79 -27 109 -14 48 -17 52 -23 30 -3 -14 -2 -43 4 -64 6 -28 6 -41
-1 -43 -8 -3 -8 -14 -3 -34 13 -45 3 -35 -31 34 -18 34 -56 98 -85 143 -30 44
-54 85 -54 90 0 5 -17 42 -37 83 -37 73 -38 76 -38 188 0 62 1 113 2 113 1 0
21 -33 44 -72 63 -110 70 -120 75 -115 5 5 -33 126 -45 141 -4 6 -13 25 -19
41 -5 17 -14 39 -18 50 -7 18 -6 19 10 6 15 -13 19 -13 27 0 6 9 4 18 -6 25
-8 6 -15 15 -15 19 0 4 -34 49 -75 100 -41 50 -75 95 -75 99 0 13 92 -58 122
-94z m-3802 65 c0 -2 -35 -31 -77 -63 -93 -71 -213 -189 -340 -333 -95 -107
-190 -195 -200 -186 -7 8 58 124 120 214 57 83 177 202 263 260 32 22 97 56
144 76 93 40 90 39 90 32z m2945 -44 c-95 -45 -425 -275 -425 -296 0 -11 18
-4 40 15 28 24 27 24 48 4 15 -15 16 -15 23 2 4 11 8 13 8 6 1 -13 22 -3 139
67 29 17 55 31 57 31 19 0 -206 -176 -237 -186 -19 -6 -126 -84 -116 -84 3 0
29 7 59 16 93 27 240 96 345 161 56 35 105 63 109 63 13 0 -47 -65 -118 -128
-71 -62 -198 -145 -227 -148 -8 -1 -49 -17 -90 -37 -41 -19 -109 -42 -150 -51
-41 -10 -77 -21 -80 -26 -11 -18 -241 -33 -375 -25 l-130 8 53 18 c105 36 389
244 481 352 13 15 29 26 35 24 6 -2 60 32 119 75 60 44 141 97 180 119 75 40
105 50 71 23 -18 -14 -18 -15 6 -8 21 5 18 -1 -20 -36 -25 -23 -38 -39 -30
-36 39 14 198 78 225 91 17 7 37 14 45 14 8 0 -12 -12 -45 -28z m239 -87 c-25
-37 -43 -73 -40 -80 3 -8 1 -14 -5 -14 -6 0 -9 -7 -5 -15 3 -8 0 -14 -6 -12
-6 1 -13 -4 -16 -12 -3 -9 0 -11 9 -6 8 5 4 -3 -7 -16 -12 -13 -27 -35 -34
-48 l-12 -24 33 23 c24 18 31 20 26 8 -5 -15 -3 -15 31 -1 20 8 45 22 55 31 9
8 17 10 17 5 0 -6 -81 -90 -180 -187 -106 -103 -174 -176 -164 -176 30 0 125
60 227 141 53 44 97 77 97 74 0 -3 -22 -49 -49 -103 -51 -102 -166 -241 -178
-214 -4 10 -10 10 -29 -3 -14 -9 -28 -14 -32 -11 -9 5 -26 -5 -107 -61 -25
-18 -56 -33 -68 -33 -12 0 -31 -7 -41 -15 -10 -8 -23 -12 -27 -9 -5 3 -9 1 -9
-5 0 -5 -10 -13 -22 -17 -13 -4 -29 -14 -36 -23 -8 -9 -10 -10 -6 -2 4 8 -28
-23 -72 -68 -43 -46 -91 -92 -107 -103 -43 -31 -52 -9 -14 33 102 112 128 145
168 211 24 40 46 75 50 78 4 3 46 64 92 135 47 72 112 168 144 214 61 88 180
220 223 248 14 9 0 -11 -31 -43 -51 -54 -109 -134 -109 -150 0 -4 15 12 33 34
17 23 58 70 90 106 36 40 56 70 51 77 -4 7 -3 9 4 5 6 -3 30 16 54 44 24 27
44 50 45 50 2 0 -18 -30 -43 -66z m-2218 -25 c8 -14 -10 -11 -32 6 -18 13 -18
14 4 8 12 -3 25 -9 28 -14z m2514 -75 c-17 -38 -32 -77 -33 -86 -1 -10 -5 -18
-9 -18 -4 0 -8 -4 -8 -10 0 -16 15 -12 40 10 26 23 45 26 37 8 -31 -81 -215
-319 -269 -349 -15 -8 -15 -5 -3 29 7 20 21 62 30 92 24 72 88 201 137 273 45
67 99 130 105 123 2 -2 -10 -35 -27 -72z m429 32 c-3 -3 -11 5 -18 17 -13 21
-12 21 5 5 10 -10 16 -20 13 -22z m-1019 9 c-7 -8 -17 -15 -23 -15 -6 0 -2 7
9 15 25 19 30 19 14 0z m-520 -35 c0 -5 -5 -10 -11 -10 -5 0 -7 5 -4 10 3 6 8
10 11 10 2 0 4 -4 4 -10z m-40 -20 c-6 -12 -22 -26 -36 -32 -13 -6 -24 -15
-24 -20 0 -11 -149 -107 -229 -148 -188 -94 -648 -255 -700 -244 -21 5 -23 3
-11 -6 12 -9 11 -10 -6 -5 -12 3 -43 -2 -68 -10 -26 -9 -54 -15 -62 -13 -22 5
214 158 358 232 215 111 319 142 376 111 l27 -14 -35 5 c-23 4 -42 0 -55 -10
-12 -9 -15 -15 -7 -16 7 0 11 -4 7 -10 -3 -5 -13 -7 -23 -4 -14 5 -15 4 -2 -5
11 -8 12 -11 2 -11 -14 0 -122 -49 -122 -55 0 -6 52 12 173 62 70 28 116 52
113 59 -3 7 3 10 14 7 16 -4 108 39 120 57 10 14 146 76 198 89 1 1 -2 -8 -8
-19z m360 -20 c0 -5 -4 -10 -10 -10 -5 0 -10 5 -10 10 0 6 5 10 10 10 6 0 10
-4 10 -10z m-30 -20 c0 -5 -4 -10 -10 -10 -5 0 -10 5 -10 10 0 6 5 10 10 10 6
0 10 -4 10 -10z m-1686 -36 c33 -8 65 -19 69 -23 4 -4 -23 -20 -60 -36 -37
-15 -85 -36 -106 -46 -21 -11 -43 -16 -49 -13 -6 4 -13 3 -17 -2 -3 -5 -16
-15 -28 -22 -19 -10 -23 -10 -23 0 0 8 -3 9 -8 3 -4 -5 -17 -11 -29 -12 -16
-2 -21 3 -20 17 1 11 7 20 13 20 7 0 14 4 16 8 5 13 162 121 177 122 2 0 31
-7 65 -16z m2751 -121 c16 -37 39 -86 51 -108 29 -51 49 -112 69 -204 17 -82
20 -227 5 -236 -6 -4 -10 6 -10 22 0 15 -4 34 -9 42 -11 18 -29 -38 -38 -119
-9 -79 -27 -91 -30 -21 -2 31 -9 124 -16 206 l-13 150 -8 -70 c-9 -88 -27
-207 -31 -203 -1 2 -5 36 -8 76 -3 41 -7 76 -10 78 -3 3 -10 -12 -17 -33 -7
-21 -20 -56 -30 -78 -11 -22 -22 -63 -26 -92 -4 -32 -12 -54 -21 -58 -13 -5
-15 9 -9 102 7 109 26 284 49 468 l13 100 9 -55 c5 -35 10 -46 12 -30 9 67 26
139 33 135 3 -2 19 -35 35 -72z m-2320 56 c14 -15 -347 -112 -385 -104 -17 4
-21 3 -12 -3 10 -7 7 -11 -12 -14 -14 -3 -23 -1 -20 3 3 5 0 9 -5 9 -6 0 -11
-5 -11 -11 0 -5 -4 -8 -10 -4 -5 3 -26 -1 -46 -10 -82 -34 -51 -7 68 60 57 32
112 64 123 71 21 13 297 16 310 3z m212 -4 c0 -10 -7 -13 -24 -9 -15 4 -23 2
-23 -6 0 -8 -8 -10 -21 -7 -16 4 -18 3 -8 -9 8 -10 8 -14 0 -14 -6 0 -11 -7
-11 -16 0 -14 -7 -15 -39 -10 -49 8 -62 -8 -19 -23 17 -6 29 -12 27 -14 -29
-21 -60 -36 -54 -26 6 9 0 11 -28 6 -20 -3 -37 -1 -39 4 -2 7 -13 7 -31 0 -16
-6 -26 -15 -23 -20 6 -9 -14 -21 -42 -27 -8 -1 -22 -10 -31 -18 -10 -9 -21
-13 -24 -10 -4 4 -19 -5 -33 -19 -27 -27 -73 -34 -70 -10 3 19 24 32 162 102
72 36 129 59 138 55 9 -3 16 -1 16 5 0 6 -5 11 -12 11 -23 0 3 12 84 40 98 34
105 35 105 15z m298 -15 c-3 -5 -11 -10 -16 -10 -6 0 -7 5 -4 10 3 6 11 10 16
10 6 0 7 -4 4 -10z m-2193 -57 c-16 -32 -42 -92 -57 -133 -28 -72 -75 -230
-70 -230 2 0 21 31 44 70 53 89 68 98 31 18 -16 -35 -61 -155 -99 -266 -55
-160 -67 -203 -53 -197 11 4 8 -4 -10 -22 -15 -15 -34 -45 -43 -67 -9 -21 -18
-36 -20 -34 -8 8 15 307 30 386 28 147 83 279 170 408 43 62 93 124 102 124 2
0 -10 -26 -25 -57z m3783 -239 c-37 -91 -63 -139 -71 -132 -8 9 35 118 68 173
18 30 34 53 36 51 2 -2 -13 -44 -33 -92z m-2395 76 c0 -5 -4 -10 -9 -10 -5 0
-18 -3 -28 -6 -16 -5 -16 -4 1 10 23 18 36 20 36 6z m1446 -57 c-17 -33 -133
-146 -152 -149 -7 -1 5 16 28 38 22 21 37 42 34 45 -3 4 -14 -1 -24 -10 -22
-21 -52 -47 -83 -72 l-24 -20 18 21 c25 30 21 41 -5 17 -66 -59 -407 -263
-441 -263 -6 0 108 112 153 150 l25 21 -25 -7 c-14 -3 -50 -21 -80 -38 -30
-18 -71 -38 -90 -46 -19 -8 -62 -29 -94 -47 -32 -19 -61 -31 -63 -29 -3 3 -10
1 -17 -5 -6 -5 -36 -25 -66 -45 l-55 -37 30 34 c87 96 150 164 242 258 l101
105 139 7 c161 9 210 15 277 35 27 7 52 12 56 9 9 -6 97 28 112 43 19 19 20
14 4 -15z m1698 -82 c65 -120 108 -299 121 -501 5 -86 4 -93 -9 -70 -8 14 -39
50 -69 81 l-55 57 15 -52 c8 -28 17 -53 18 -56 7 -11 85 -303 83 -306 -2 -1
-26 25 -54 59 -57 69 -87 122 -103 182 -11 43 -33 286 -26 293 2 3 14 -16 27
-42 24 -51 48 -61 48 -20 0 14 4 23 8 20 5 -3 7 9 4 27 -10 85 -54 328 -67
371 l-15 49 24 -22 c13 -12 35 -44 50 -70z m-819 19 c-9 -18 -19 -30 -21 -27
-3 3 2 19 11 37 9 18 19 30 21 27 3 -3 -2 -19 -11 -37z m-1679 -25 c-22 -13
-44 -21 -49 -18 -5 3 -13 0 -17 -7 -4 -6 -16 -10 -26 -8 -14 3 -3 11 36 30 72
34 110 37 56 3z m1213 -21 c-17 -21 -31 -17 -17 5 7 11 16 17 20 14 5 -2 4
-11 -3 -19z m-1382 -49 c0 -17 -13 -20 -21 -6 -4 5 0 12 6 14 7 3 13 6 14 6 0
1 1 -6 1 -14z m-53 -20 c-10 -8 -23 -15 -28 -15 -6 0 -1 7 10 15 10 8 23 15
28 15 6 0 1 -7 -10 -15z m-1868 -282 c-8 -27 -29 -104 -46 -173 -17 -69 -40
-145 -51 -169 -10 -24 -16 -48 -12 -55 3 -6 3 -8 -2 -4 -4 4 -20 -10 -36 -31
-36 -51 -55 -63 -45 -30 4 13 18 74 31 134 41 179 73 262 139 353 36 51 44 41
22 -25z m3921 5 c-3 -7 -5 -2 -5 12 0 14 2 19 5 13 2 -7 2 -19 0 -25z m-696
-21 c-10 -9 -11 -8 -5 6 3 10 9 15 12 12 3 -3 0 -11 -7 -18z m686 -29 c-3 -8
-6 -5 -6 6 -1 11 2 17 5 13 3 -3 4 -12 1 -19z m-722 -7 c3 -5 2 -12 -3 -15 -5
-3 -9 1 -9 9 0 17 3 19 12 6z m-15 -35 c0 -2 -7 -9 -15 -16 -13 -11 -14 -10
-9 4 5 14 24 23 24 12z m515 -36 c3 -5 1 -10 -4 -10 -6 0 -11 5 -11 10 0 6 2
10 4 10 3 0 8 -4 11 -10z m-564 -17 c-5 -10 -22 -29 -37 -43 -24 -22 -23 -20
6 18 35 44 47 54 31 25z m297 -45 c-18 -24 -75 -84 -126 -135 -51 -51 -91 -93
-88 -93 16 0 229 113 288 153 42 28 75 43 87 40 11 -3 21 2 25 13 5 14 4 15
-9 4 -9 -7 -18 -11 -20 -8 -3 3 13 19 35 37 22 17 40 27 40 21 0 -6 -6 -13
-14 -16 -12 -5 -13 -20 -6 -84 2 -24 3 -24 10 5 4 17 8 22 9 13 0 -10 6 -18
12 -18 6 0 9 9 6 19 -3 14 0 19 13 18 10 -1 16 -5 14 -9 -3 -5 3 -16 12 -26
17 -16 17 -15 11 18 -5 27 -4 31 4 17 20 -34 -47 -397 -73 -397 -4 0 -27 8
-50 17 -34 14 -73 18 -188 18 -130 -1 -157 -4 -265 -32 -335 -88 -498 -172
-556 -285 -32 -62 -25 -77 17 -37 l36 34 -22 -38 c-30 -51 -18 -58 26 -16 33
31 35 31 19 7 -9 -16 -13 -28 -8 -28 5 0 51 14 102 30 51 17 98 27 104 24 7
-4 9 -3 4 1 -4 5 14 17 40 27 58 22 77 23 43 2 l-25 -15 30 5 c28 4 28 3 10
-10 -12 -9 -14 -14 -5 -14 7 0 22 7 31 16 17 16 19 15 29 -11 5 -14 7 -31 4
-37 -3 -5 3 -4 15 4 14 8 19 19 15 31 -6 18 1 19 148 13 84 -3 169 -8 188 -10
71 -8 121 -19 125 -26 3 -5 -7 -6 -22 -4 -16 2 -80 7 -144 11 -134 7 -219 -5
-322 -45 -69 -27 -196 -115 -205 -142 -4 -12 -2 -13 9 -4 8 6 26 13 40 16 21
4 16 -5 -37 -58 -93 -93 -144 -201 -150 -319 l-3 -70 30 62 c16 34 48 83 72
108 l42 47 0 -64 c1 -78 34 -153 96 -215 66 -67 118 -88 219 -88 75 0 91 3
132 27 53 32 96 82 134 158 30 60 44 189 26 252 -8 30 -8 36 4 31 8 -3 12 -9
9 -13 -3 -4 18 -10 45 -12 28 -1 50 1 50 5 0 5 5 5 10 2 6 -3 10 -1 10 4 0 23
17 9 35 -26 22 -47 32 -177 16 -225 -6 -19 -26 -57 -43 -84 -18 -27 -32 -53
-33 -57 0 -5 -18 -27 -40 -48 l-40 -40 33 12 c43 15 123 88 162 149 18 27 54
113 80 191 26 77 57 150 69 163 20 21 27 81 9 70 -4 -3 -23 6 -40 19 -44 33
-170 96 -238 119 -36 12 -43 17 -21 13 18 -3 72 -21 120 -40 61 -25 79 -29 61
-15 -14 11 -32 27 -41 35 -9 8 -23 15 -33 15 -9 0 -14 5 -11 10 7 12 41 -4 68
-32 10 -10 23 -15 29 -12 7 4 8 2 4 -4 -4 -7 -1 -12 8 -12 9 0 13 -6 10 -14
-3 -8 0 -17 6 -21 6 -4 11 -1 9 6 -3 25 1 39 11 39 6 0 10 -6 9 -12 -3 -23 2
-53 7 -42 5 13 93 -12 107 -30 5 -6 6 0 3 14 -5 23 -4 24 9 7 13 -18 14 -17
19 10 2 15 3 -14 0 -65 -2 -52 -7 -98 -10 -104 -4 -6 -8 -54 -10 -107 l-3 -96
14 61 c14 64 74 218 82 211 7 -8 -17 -283 -37 -417 -28 -187 -110 -461 -205
-680 -109 -254 -263 -464 -460 -629 -241 -201 -649 -416 -827 -436 -49 -6 -51
-5 -34 9 10 8 48 25 83 37 35 11 63 23 60 25 -2 2 -37 -8 -78 -22 -97 -33
-269 -42 -379 -21 -83 17 -115 7 -59 -18 l34 -16 -35 7 c-161 29 -490 196
-728 370 -106 78 -283 260 -365 374 -220 309 -397 860 -423 1313 -4 65 -4 117
-1 117 3 0 20 -40 38 -90 17 -49 34 -90 36 -90 3 0 3 46 0 103 -5 96 -5 97 4
28 9 -74 19 -106 19 -61 0 13 3 21 6 17 3 -3 17 -2 30 3 15 6 24 6 24 0 0 -6
5 -10 11 -10 8 0 8 5 -1 15 -7 8 -16 12 -21 9 -5 -3 -9 0 -9 6 0 7 6 10 14 7
25 -10 28 6 4 20 -13 7 -17 12 -9 13 11 0 11 3 1 18 -7 9 2 2 19 -17 18 -21
41 -67 57 -115 58 -174 122 -289 194 -346 42 -33 75 -33 44 1 -9 10 -14 19
-11 19 4 0 -13 29 -38 65 -24 36 -47 82 -51 102 -17 89 -5 182 29 215 12 11
15 18 7 14 -8 -4 -6 -1 4 8 10 8 23 13 28 10 4 -3 11 1 14 9 3 9 13 13 24 10
11 -3 27 2 36 12 13 13 19 14 25 4 6 -10 9 -9 15 4 3 9 10 17 15 17 5 0 1 -19
-9 -42 -12 -31 -17 -71 -17 -138 0 -82 4 -103 27 -152 50 -107 172 -198 266
-198 58 0 134 20 129 34 -3 7 -33 10 -93 8 -88 -4 -90 -4 -143 32 -66 45 -93
78 -107 132 -11 39 -10 45 10 63 11 10 35 21 51 23 25 2 33 -3 50 -31 55 -93
167 -106 251 -29 12 10 25 18 30 16 5 -1 24 3 42 11 18 8 34 12 36 10 6 -6 8
-39 7 -86 -1 -33 -4 -41 -16 -37 -10 4 -15 0 -15 -14 0 -10 -10 -32 -22 -48
-22 -27 -22 -28 -2 -14 63 44 113 140 121 231 l6 59 33 -37 c19 -21 47 -64 63
-96 l30 -58 -3 68 c-6 130 -83 271 -196 356 -68 52 -56 56 35 11 l50 -25 -43
43 c-23 25 -39 48 -35 53 5 4 3 5 -4 2 -6 -4 -49 11 -96 32 -131 60 -203 74
-349 68 -68 -3 -134 -8 -148 -12 -16 -4 -14 -1 8 9 25 12 71 16 175 17 144 2
168 0 178 -13 3 -5 27 -10 54 -13 26 -2 55 -11 64 -19 20 -17 61 -38 61 -32 0
3 -12 12 -27 21 -29 16 -22 16 39 -1 21 -6 21 -6 4 11 -14 14 -15 20 -4 26 9
6 6 9 -12 10 -23 0 -23 1 -5 9 l20 9 -20 1 c-11 1 -14 4 -7 7 21 8 13 20 -10
17 -14 -3 -35 6 -53 21 l-30 25 45 -13 c45 -14 266 -91 307 -107 31 -13 36 0
11 29 -19 21 -20 23 -3 11 11 -8 30 -23 42 -34 33 -28 37 -15 12 30 l-23 39
25 -20 c58 -49 61 -51 50 -21 -53 139 -168 206 -516 302 -71 20 -131 37 -133
39 -1 1 24 2 55 2 98 -1 182 13 176 29 -3 8 1 14 11 14 9 0 16 5 16 10 0 6 8
10 18 10 14 0 15 -2 2 -10 -12 -8 -10 -10 9 -10 16 0 22 4 17 15 -4 12 3 15
29 15 18 0 64 7 101 15 36 9 68 14 71 11 3 -2 -15 -9 -39 -14 -28 -6 -34 -10
-18 -11 39 -1 70 10 70 25 0 8 10 14 23 14 18 0 19 -2 7 -11 -17 -11 47 -4 90
11 35 12 219 32 231 25 5 -4 9 -2 9 3 0 5 21 13 46 17 61 9 70 11 129 29 61
19 81 19 40 1 l-30 -14 30 -2 c20 -1 23 -3 10 -6 -11 -2 -25 -14 -30 -26 -6
-14 -18 -22 -33 -21 -15 0 -19 -3 -13 -9 7 -7 46 2 118 27 162 57 209 75 198
76 -5 0 1 7 14 14 14 8 31 12 38 9 7 -3 13 -1 13 5 0 16 51 31 135 38 44 4 91
7 104 6 18 0 20 2 10 9 -11 7 -11 9 3 9 9 0 19 6 22 13 3 6 4 3 3 -7 -2 -16 5
-20 36 -21 21 -1 32 2 26 6 -8 5 1 10 24 14 19 4 41 4 48 -1 7 -4 10 -3 6 3
-4 7 21 18 66 29 78 19 214 66 256 89 14 8 28 14 29 15 2 0 -11 -19 -30 -42z
m-381 -48 c-14 -11 -33 -20 -44 -20 -13 0 -11 5 12 19 40 26 65 26 32 1z
m-2946 -220 c5 -80 23 -217 39 -305 17 -88 34 -193 40 -234 6 -41 13 -86 16
-100 13 -54 -14 -4 -55 101 -99 258 -126 542 -68 733 l12 40 2 -45 c2 -25 8
-110 14 -190z m4373 -40 c0 -139 -4 -180 -23 -260 -35 -141 -125 -390 -137
-378 -5 6 32 223 61 353 18 83 67 413 76 519 1 6 6 -7 12 -29 6 -22 11 -114
11 -205z m-2067 54 c-3 -3 -12 -4 -19 -1 -8 3 -5 6 6 6 11 1 17 -2 13 -5z
m-1298 -101 c-12 -15 -12 -16 3 -10 10 3 28 3 40 -2 14 -5 -11 -8 -68 -8 -49
0 -71 2 -50 4 22 3 49 11 60 19 27 19 32 18 15 -3z m411 7 c-20 -13 -43 -13
-35 0 3 6 16 10 28 10 18 0 19 -2 7 -10z m-147 -7 c-13 -2 -33 -2 -45 0 -13 2
-3 4 22 4 25 0 35 -2 23 -4z m90 -7 c5 -12 0 -13 -26 -4 -44 15 -45 18 -10 18
18 0 33 -6 36 -14z m-473 -17 c0 -3 -24 -11 -52 -18 -29 -6 -77 -25 -105 -40
-29 -16 -53 -27 -53 -25 0 8 79 53 104 60 14 3 24 10 21 14 -3 5 4 6 15 3 11
-3 20 -1 20 5 0 5 11 9 25 8 14 0 25 -4 25 -7z m273 -16 c-7 -2 -19 -2 -25 0
-7 3 -2 5 12 5 14 0 19 -2 13 -5z m2310 -170 c-7 -2 -19 -2 -25 0 -7 3 -2 5
12 5 14 0 19 -2 13 -5z m-160 -10 c-7 -2 -19 -2 -25 0 -7 3 -2 5 12 5 14 0 19
-2 13 -5z m-60 -10 c-7 -2 -19 -2 -25 0 -7 3 -2 5 12 5 14 0 19 -2 13 -5z
m-96 -19 c-3 -3 -12 -4 -19 -1 -8 3 -5 6 6 6 11 1 17 -2 13 -5z m-119 -38 c-7
-7 -19 -11 -27 -8 -11 4 -10 7 5 13 29 12 36 10 22 -5z m-58 -16 c-8 -5 -22
-9 -30 -9 -10 0 -8 3 5 9 27 12 43 12 25 0z m1443 -137 c61 -90 75 -194 58
-421 -18 -229 -78 -432 -169 -571 -60 -92 -178 -204 -253 -239 -100 -48 -227
-74 -273 -56 -22 8 -20 28 12 106 30 73 47 89 165 146 242 118 332 390 144
436 l-28 7 22 23 c13 13 29 22 36 19 7 -3 13 0 13 6 0 6 -4 11 -10 11 -5 0
-10 5 -10 11 0 7 10 5 25 -5 14 -9 25 -12 25 -6 0 5 -4 10 -10 10 -5 0 -14 10
-20 23 -9 18 -9 20 2 7 15 -18 98 -15 110 3 5 8 8 7 8 -4 0 -8 -5 -20 -12 -27
-9 -9 -8 -12 4 -12 8 0 21 13 28 30 17 42 30 28 30 -33 0 -62 15 -48 25 23 8
60 21 79 22 34 1 -20 6 -41 12 -47 7 -7 9 -4 6 11 -2 12 0 22 5 22 5 0 11 -10
13 -22 4 -20 4 -20 6 4 1 22 5 26 25 22 30 -5 36 14 36 119 0 110 -47 257 -94
296 -9 8 -16 21 -16 31 0 24 21 80 30 80 4 0 19 -17 33 -37z m-4473 -7 c10
-32 9 -38 -29 -93 -44 -65 -71 -159 -71 -251 0 -63 17 -135 29 -128 5 3 8 -5
7 -17 -1 -24 14 -48 27 -40 4 2 7 -4 7 -13 0 -10 3 -14 6 -11 4 3 14 2 24 -3
15 -8 16 -5 13 18 -4 21 -2 24 6 12 6 -8 11 -25 11 -38 0 -13 4 -20 10 -17 6
3 10 0 10 -7 0 -9 3 -9 10 2 5 8 10 27 10 43 0 27 13 36 26 16 4 -8 9 -7 15 2
6 9 12 10 17 4 9 -12 31 -19 57 -17 62 5 70 8 76 27 5 17 9 14 24 -20 11 -22
21 -43 23 -47 2 -5 -6 -8 -17 -8 -35 0 -87 -31 -106 -63 -40 -68 -10 -187 69
-274 19 -22 32 -43 29 -47 -4 -4 0 -4 8 -1 15 5 71 -32 91 -60 4 -5 8 -7 8 -2
0 4 15 0 33 -10 17 -9 48 -18 67 -20 42 -5 44 -6 64 -63 8 -25 24 -68 35 -96
11 -29 17 -54 14 -58 -12 -11 -105 -6 -167 10 -202 51 -386 237 -471 474 -64
180 -77 245 -82 429 -4 119 -2 191 7 230 14 66 67 171 86 171 7 0 18 -15 24
-34z m3516 25 c5 -5 18 -11 29 -14 20 -5 19 -5 -1 -6 -11 0 -29 6 -40 14 -10
8 -14 15 -8 15 5 0 14 -4 20 -9z m-2841 -181 c-3 -5 -14 -14 -24 -19 -13 -7
-18 -6 -18 4 0 7 6 11 13 8 6 -2 15 0 19 6 3 6 8 11 11 11 3 0 2 -4 -1 -10z
m-71 -121 c-3 -5 -10 -7 -15 -3 -5 3 -7 10 -3 15 3 5 10 7 15 3 5 -3 7 -10 3
-15z m932 -24 c25 -26 26 -52 2 -82 -27 -34 -108 2 -108 47 0 26 34 60 60 60
12 0 32 -11 46 -25z m1758 4 c31 -24 33 -52 6 -79 -26 -26 -58 -25 -87 2 -27
25 -29 45 -7 76 19 28 53 28 88 1z m1021 -79 c3 -5 1 -10 -4 -10 -6 0 -11 5
-11 10 0 6 2 10 4 10 3 0 8 -4 11 -10z m-998 -86 c13 -8 22 -18 21 -22 -1 -4
3 -17 10 -28 10 -18 7 -27 -16 -57 -15 -20 -39 -41 -54 -46 -16 -5 -28 -16
-28 -23 0 -29 -59 -50 -153 -55 l-92 -5 -55 39 c-30 21 -64 53 -76 70 -24 35
-40 111 -26 125 13 13 88 -6 84 -22 -2 -8 5 -11 21 -6 16 4 29 0 38 -10 7 -8
26 -22 42 -31 57 -29 162 8 188 67 12 25 17 28 44 23 16 -3 40 -12 52 -19z
m-3217 12 c0 -3 -4 -8 -10 -11 -5 -3 -10 -1 -10 4 0 6 5 11 10 11 6 0 10 -2
10 -4z m2860 -17 c0 -5 -4 -9 -10 -9 -5 0 -10 7 -10 16 0 8 5 12 10 9 6 -3 10
-10 10 -16z m-303 -11 c-3 -8 -6 -5 -6 6 -1 11 2 17 5 13 3 -3 4 -12 1 -19z
m-1578 -1692 c-2 -2 -125 -52 -274 -111 -263 -105 -398 -165 -409 -184 -17
-28 280 -261 604 -473 334 -219 875 -605 896 -640 5 -7 -5 -2 -21 10 -17 13
-137 100 -269 192 -238 169 -331 231 -611 403 -152 94 -337 220 -453 309 -68
52 -85 58 -80 31 2 -12 -3 -17 -14 -15 -10 1 -26 -6 -38 -18 -12 -12 -15 -20
-7 -21 6 0 3 -4 -8 -9 -14 -6 -16 -9 -5 -10 8 -1 2 -6 -14 -10 -23 -7 -38 -4
-68 12 -43 25 -46 41 -24 123 28 108 68 151 204 219 152 76 319 140 466 176
65 17 135 26 125 16z m2466 -37 c197 -61 412 -157 500 -225 45 -34 74 -89 92
-173 15 -71 12 -77 -41 -106 l-35 -19 -25 29 c-14 16 -23 32 -21 35 6 10 -17
80 -26 80 -4 0 -20 -10 -36 -23 -101 -84 -383 -275 -626 -426 -199 -123 -406
-261 -557 -371 -162 -118 -210 -151 -209 -142 3 28 491 376 924 658 77 51 194
132 260 181 115 87 275 227 275 242 0 12 -198 107 -300 144 -203 74 -360 139
-360 149 0 15 67 3 185 -33z m-520 -294 c9 -88 25 -200 36 -249 10 -49 17 -92
14 -94 -3 -3 -5 0 -5 6 0 7 -5 12 -11 12 -7 0 -10 -14 -7 -35 2 -19 2 -32 -1
-30 -2 3 -15 -12 -28 -33 -23 -37 -23 -37 -18 -7 l6 30 -16 -30 c-12 -23 -14
-25 -11 -7 2 12 0 20 -5 16 -5 -3 -9 -13 -9 -23 0 -9 -7 -26 -15 -37 -15 -19
-15 -19 -8 1 4 13 -4 7 -24 -15 -24 -27 -30 -42 -26 -63 4 -21 10 -27 22 -23
35 13 -26 -27 -103 -66 -179 -90 -396 -138 -630 -138 -139 0 -197 9 -346 52
-153 44 -247 84 -253 110 -5 17 -9 19 -19 10 -11 -8 -21 -5 -43 15 -29 24 -29
25 -3 9 34 -20 33 -20 35 4 2 17 -2 20 -19 14 -20 -6 -20 -4 -14 35 6 38 5 41
-17 41 -13 0 -28 -5 -34 -11 -8 -8 -10 -1 -8 25 2 31 -1 36 -21 36 -24 0 -54
24 -54 43 0 7 -5 30 -11 52 -11 38 -12 38 -26 20 -14 -19 -15 -19 -8 5 27 89
37 141 50 265 8 77 15 173 15 213 0 39 4 72 9 72 5 0 12 -30 16 -67 11 -126
41 -199 128 -317 54 -73 215 -223 308 -287 87 -59 209 -118 271 -130 90 -18
156 -5 277 57 287 147 533 421 555 621 4 32 10 76 13 98 l7 40 7 -40 c4 -22
15 -112 24 -200z m-2345 72 c0 -7 -11 2 -25 18 -32 39 -32 58 0 22 14 -15 25
-33 25 -40z m3120 36 c0 -5 -17 -21 -38 -38 -35 -27 -33 -21 7 28 15 18 31 23
31 10z m-3390 -354 l25 -20 -32 16 c-18 8 -33 18 -33 20 0 10 16 4 40 -16z
m-153 -51 l35 -21 -28 -13 c-16 -7 -22 -13 -14 -13 9 -1 26 -8 38 -17 19 -13
20 -17 8 -29 -12 -13 -41 -14 -86 -3 -9 2 -16 -6 -18 -19 -4 -30 -28 -29 -48
2 -19 29 -12 72 17 110 25 31 51 32 96 3z m4000 0 c12 -13 24 -39 28 -60 6
-29 3 -40 -14 -57 -25 -25 -41 -27 -41 -6 0 21 -40 39 -85 37 -22 -1 -46 2
-53 6 -9 6 -3 9 19 10 37 1 67 22 31 22 -31 0 -27 11 16 42 45 33 72 35 99 6z
m-2952 -118 c3 -5 1 -10 -4 -10 -6 0 -11 5 -11 10 0 6 2 10 4 10 3 0 8 -4 11
-10z m3093 -125 c17 -19 36 -51 41 -72 21 -74 9 -98 -20 -40 -11 23 -24 33
-45 35 -16 2 -32 8 -35 14 -4 6 -28 13 -54 15 -30 4 -42 9 -33 14 19 12 -89 0
-142 -17 -44 -13 -123 -28 -205 -38 -22 -3 -32 -3 -22 0 9 3 17 10 17 16 0 6
11 8 26 4 15 -4 23 -3 20 3 -9 13 327 96 405 100 10 1 31 -15 47 -34z m-4172
1 c140 -29 336 -77 331 -82 -2 -2 -41 3 -88 11 -249 42 -365 56 -391 46 -33
-12 -45 -31 -21 -32 12 -1 10 -3 -7 -8 -15 -4 -33 -22 -45 -44 -20 -36 -43
-52 -31 -21 3 9 6 28 6 43 0 16 14 47 30 69 37 51 48 52 216 18z m1235 -13
c13 -16 12 -17 -3 -4 -10 7 -18 15 -18 17 0 8 8 3 21 -13z m1509 3 c0 -2 -8
-10 -17 -17 -16 -13 -17 -12 -4 4 13 16 21 21 21 13z m-2343 -92 c-3 -3 -12
-4 -19 -1 -8 3 -5 6 6 6 11 1 17 -2 13 -5z m3230 0 c-3 -3 -12 -4 -19 -1 -8 3
-5 6 6 6 11 1 17 -2 13 -5z m-3190 -10 c-3 -3 -12 -4 -19 -1 -8 3 -5 6 6 6 11
1 17 -2 13 -5z m3103 -2 c0 -9 -62 -34 -68 -27 -3 3 41 26 66 34 1 1 2 -3 2
-7z m-3560 -103 l115 -24 -170 -7 c-153 -5 -221 -16 -287 -43 -15 -6 -18 -2
-18 23 0 17 5 43 10 58 l10 26 113 -4 c61 -3 164 -16 227 -29z m4341 21 c14
-8 19 -21 19 -57 0 -42 -1 -45 -22 -38 -85 26 -134 36 -245 46 -70 6 -145 8
-167 5 -22 -4 -37 -4 -34 -1 3 4 66 17 140 30 142 25 277 32 309 15z m-2676
-89 c247 -54 480 -50 729 13 72 19 132 33 133 31 2 -1 -35 -31 -81 -66 -46
-35 -166 -128 -265 -207 l-181 -143 -97 79 c-159 127 -283 224 -365 285 -43
31 -78 59 -78 62 0 2 25 -5 55 -15 30 -10 98 -28 150 -39z m-1910 -134 c-111
-96 -176 -164 -170 -179 4 -10 -18 -32 -67 -68 -40 -30 -90 -69 -111 -87 -20
-18 -41 -33 -45 -33 -5 0 -19 23 -32 50 l-23 50 24 26 c65 72 312 237 409 275
74 30 78 21 15 -34z m4564 8 c85 -42 237 -142 323 -212 l68 -54 -32 -57 c-17
-31 -33 -59 -35 -61 -2 -3 -18 11 -37 30 -48 48 -133 119 -143 119 -18 0 -54
47 -48 62 4 10 -25 40 -92 96 -54 44 -109 90 -123 102 l-25 21 39 -6 c22 -4
69 -22 105 -40z m-1049 -992 c-2 -527 -7 -888 -10 -803 -8 212 -12 1724 -4
1744 3 9 9 16 13 16 3 0 4 -431 1 -957z m-2610 471 c0 -556 -13 -1332 -20
-1209 -9 135 -11 1450 -4 1576 14 225 24 73 24 -367z m2707 -417 c2 -530 -1
-864 -6 -852 -6 11 -10 231 -10 490 -1 259 -6 638 -11 844 -6 205 -8 382 -4
393 4 15 9 17 17 9 9 -9 13 -243 14 -884z m-2626 -954 c-4 -9 -11 366 -16 870
-6 731 -5 893 7 924 11 32 13 -95 16 -870 1 -500 -2 -916 -7 -924z m-796 1637
c72 -72 141 -137 151 -145 10 -7 16 -16 13 -19 -3 -3 -39 27 -80 67 -41 39
-109 104 -152 144 -72 67 -86 83 -71 83 3 0 66 -59 139 -130z m4183 57 c-72
-71 -82 -88 -65 -108 7 -7 2 -5 -10 5 -18 15 -23 16 -23 5 0 -8 5 -20 10 -27
7 -9 7 -9 -2 -2 -7 6 -19 10 -27 10 -12 0 -12 -3 -3 -12 7 -7 12 -17 12 -22 0
-6 -4 -5 -9 3 -5 7 -14 10 -20 6 -9 -5 -7 -11 6 -20 11 -9 22 -10 28 -4 5 5
14 9 20 9 5 0 2 -5 -8 -11 -14 -8 -15 -14 -7 -24 8 -10 7 -13 -6 -11 -9 0 -19
-4 -21 -10 -6 -17 29 -27 39 -12 6 10 8 10 9 -2 0 -10 3 -9 10 5 l9 20 -3 -20
c-1 -11 -7 -20 -12 -21 -6 0 -19 -4 -30 -8 -45 -17 -49 -18 -35 -1 17 21 5 31
-17 14 -17 -13 -17 -13 -3 6 8 11 21 26 29 34 12 13 11 16 -8 25 -23 10 -43 0
-23 -13 9 -5 9 -12 -2 -27 -8 -11 -18 -15 -23 -10 -4 5 -2 11 5 13 17 6 15 20
-3 20 -8 0 -12 -4 -9 -9 4 -5 -3 -12 -15 -15 -12 -3 -21 -10 -21 -16 0 -6 -3
-7 -7 -3 -4 4 60 74 142 156 82 82 151 147 153 145 3 -2 -24 -33 -60 -68z
m-3576 4 c-17 -14 -53 -45 -80 -69 -28 -23 -53 -38 -56 -33 -4 5 31 41 76 80
46 39 85 66 87 59 2 -6 -10 -23 -27 -37z m2971 -30 c43 -35 74 -67 70 -70 -4
-3 -25 -22 -47 -41 l-39 -35 26 47 26 46 -37 25 c-47 32 -102 85 -102 98 0 14
13 5 103 -70z m965 -80 c52 -44 63 -61 39 -61 -7 0 -25 -14 -39 -31 -15 -16
-36 -31 -46 -32 -10 0 -19 -9 -19 -20 -2 -20 -29 -51 -48 -55 -5 -1 -10 -6
-10 -11 0 -5 -3 -13 -7 -17 -12 -11 -9 -21 7 -28 10 -3 48 26 110 85 l94 91
25 -19 c28 -20 35 -38 10 -29 -8 3 -12 2 -9 -4 9 -15 -50 -111 -61 -100 -6 6
-10 3 -10 -9 0 -11 5 -17 11 -13 5 3 3 -5 -6 -18 -9 -14 -26 -44 -38 -68 l-22
-43 -59 52 c-33 28 -57 56 -53 62 3 5 1 7 -5 3 -6 -3 -27 3 -46 15 l-36 21
-49 -36 c-27 -20 -53 -36 -58 -36 -6 0 -14 -9 -19 -19 -11 -23 -193 -177 -205
-173 -5 1 -8 -2 -7 -8 3 -9 -71 -79 -84 -80 -5 0 -33 24 -64 53 l-57 54 49 44
c27 24 75 71 106 104 55 58 58 59 72 40 8 -11 17 -17 20 -14 3 3 -23 33 -58
68 l-63 63 -102 -97 c-55 -54 -101 -94 -101 -89 0 10 191 204 201 204 3 0 33
-25 65 -55 33 -31 67 -60 76 -65 13 -8 52 24 204 174 l188 184 26 -21 c14 -12
49 -42 78 -66z m-4751 -28 c59 -56 144 -136 188 -177 89 -85 76 -85 168 3 l57
56 109 -109 109 -109 98 87 c54 47 103 86 109 86 5 0 -3 -12 -20 -27 -41 -36
-180 -160 -229 -205 -23 -21 -44 -38 -48 -38 -17 0 -4 17 37 50 24 19 44 37
43 40 0 3 -48 50 -105 105 l-105 100 -44 -50 c-24 -28 -44 -53 -44 -56 0 -4
48 -54 107 -113 59 -58 104 -108 100 -112 -4 -4 -15 1 -26 10 -14 13 -21 14
-27 5 -4 -8 -3 -10 4 -5 11 6 14 0 11 -21 -1 -5 -5 -7 -11 -5 -5 1 -7 -2 -4
-7 4 -5 -9 -22 -28 -36 l-35 -27 -35 28 c-19 16 -38 39 -41 53 -4 16 -9 21
-14 13 -5 -8 -27 5 -69 44 -34 31 -59 61 -56 66 4 7 2 8 -4 4 -10 -6 -45 20
-118 90 -12 12 -36 31 -52 43 l-30 21 -51 -41 c-28 -22 -55 -38 -60 -35 -5 4
-13 1 -17 -5 -5 -8 -2 -10 7 -4 8 4 -4 -9 -25 -29 -35 -32 -42 -35 -55 -22
-11 12 -12 18 -2 30 10 12 9 14 -8 9 -15 -4 -22 1 -27 21 -3 14 -10 26 -15 26
-5 0 -9 5 -9 11 0 5 3 8 8 6 4 -3 13 2 21 10 11 13 11 14 -5 13 -33 -4 -45 0
-39 10 4 6 10 8 15 5 5 -3 12 0 16 6 4 8 3 9 -4 5 -19 -11 -14 5 6 21 16 14
16 14 -1 9 -10 -3 -23 -6 -28 -6 -4 0 -6 -7 -3 -15 4 -8 1 -15 -6 -15 -6 0 -8
5 -5 10 3 6 2 10 -4 10 -6 0 -15 10 -21 23 -10 20 -10 20 3 5 16 -20 32 -25
21 -6 -5 8 -2 9 9 5 26 -10 20 11 -9 29 -20 14 -27 15 -34 5 -4 -7 -10 -9 -13
-4 -3 5 3 20 13 33 l19 25 38 -35 c117 -109 152 -144 147 -152 -3 -4 2 -8 11
-8 52 0 13 69 -87 155 -38 31 -68 59 -68 62 0 4 37 39 115 106 17 15 33 25 37
24 4 -1 55 -48 115 -104z m633 -5 c-19 -17 -56 -51 -82 -75 -27 -25 -48 -40
-48 -35 0 11 148 142 159 142 3 0 -10 -15 -29 -32z m3145 12 c-10 -11 -22 -20
-28 -20 -5 0 1 9 14 20 31 25 37 25 14 0z m190 -57 c26 -24 41 -43 34 -43 -8
0 -41 28 -74 62 -62 63 -45 55 40 -19z m-221 15 c-3 -5 -10 -6 -15 -3 -5 4 -9
1 -9 -6 0 -7 -3 -10 -6 -6 -9 9 3 24 20 24 8 0 13 -4 10 -9z m1426 -214 c49
-90 60 -127 40 -139 -5 -3 -10 -11 -10 -18 0 -8 3 -8 12 1 7 7 16 12 20 12 10
0 54 -88 84 -168 l24 -63 -37 -44 c-20 -25 -40 -45 -43 -45 -4 0 -14 26 -24
58 -10 31 -34 87 -52 124 -19 37 -40 84 -47 105 -7 21 -43 84 -80 140 -37 56
-67 108 -67 115 0 7 14 37 31 67 l31 54 35 -54 c19 -30 56 -95 83 -145z
m-5665 145 c15 -22 29 -47 32 -54 2 -8 -20 -52 -51 -98 -82 -125 -187 -345
-201 -421 -4 -20 -11 -36 -15 -36 -4 0 -24 20 -45 45 -42 51 -42 49 17 193 30
71 43 83 66 60 9 -9 12 -8 12 6 0 9 -5 26 -10 37 -8 14 -5 29 11 61 38 77 142
248 151 248 4 0 19 -18 33 -41z m705 21 c8 -5 12 -11 10 -14 -3 -2 -14 2 -24
10 -22 15 -10 19 14 4z m45 -49 c-6 -5 -25 10 -25 20 0 5 6 4 14 -3 8 -7 12
-15 11 -17z m3551 -128 c51 -46 95 -83 99 -83 17 0 94 -75 86 -83 -10 -10
-293 234 -305 262 -9 19 7 6 120 -96z m-1285 14 c-19 -18 -30 -25 -26 -17 13
25 48 60 54 55 3 -3 -10 -20 -28 -38z m96 7 c2 -6 -3 -11 -12 -11 -8 0 -15 7
-15 15 0 15 22 12 27 -4z m43 -8 c0 -11 -19 -15 -25 -6 -3 5 1 10 9 10 9 0 16
-2 16 -4z m-757 -21 c-3 -9 -8 -14 -10 -11 -3 3 -2 9 2 15 9 16 15 13 8 -4z
m783 3 c4 -7 3 -8 -4 -4 -7 4 -12 2 -12 -5 0 -7 -3 -10 -6 -6 -6 5 3 27 11 27
2 0 7 -5 11 -12z m-2686 -14 c0 -8 -43 -43 -54 -44 -5 0 1 11 14 25 22 24 40
32 40 19z m4558 -11 c16 -16 16 -16 -1 -10 -10 4 -23 7 -28 7 -6 0 -7 5 -4 10
9 14 14 13 33 -7z m-1848 -8 c0 -8 -4 -15 -10 -15 -5 0 -7 7 -4 15 4 8 8 15
10 15 2 0 4 -7 4 -15z m-1970 -66 c-75 -70 -130 -115 -130 -105 0 7 189 176
197 176 5 -1 -26 -33 -67 -71z m1725 61 c-3 -5 -12 -10 -18 -10 -7 0 -6 4 3
10 19 12 23 12 15 0z m1451 -168 c-6 -6 -186 149 -186 160 0 5 43 -28 95 -73
52 -45 93 -84 91 -87z m-1236 154 c0 -3 -4 -8 -10 -11 -5 -3 -10 -1 -10 4 0 6
5 11 10 11 6 0 10 -2 10 -4z m-845 -76 c3 -5 1 -10 -4 -10 -6 0 -11 5 -11 10
0 6 2 10 4 10 3 0 8 -4 11 -10z m2850 -10 c10 -11 16 -20 13 -20 -3 0 -13 9
-23 20 -10 11 -16 20 -13 20 3 0 13 -9 23 -20z m-2004 -13 c-10 -9 -11 -8 -5
6 3 10 9 15 12 12 3 -3 0 -11 -7 -18z m-861 -51 c0 -2 -7 -7 -16 -10 -8 -3
-12 -2 -9 4 6 10 25 14 25 6z m-1202 -87 c68 -73 84 -104 17 -37 -25 26 -54
52 -63 57 -20 10 -42 4 -42 -11 0 -7 5 -7 13 1 10 8 19 7 33 -4 19 -14 18 -14
-2 -11 -13 3 -35 -9 -63 -35 -46 -43 -51 -45 -69 -27 -10 10 0 25 45 70 32 32
61 58 65 58 5 0 34 -27 66 -61z m3403 10 c32 -29 56 -55 54 -60 -3 -4 -1 -10
5 -14 6 -4 8 -10 5 -15 -3 -5 -14 -2 -25 7 -10 9 -17 20 -14 24 4 7 -68 69
-81 69 -4 0 -30 -20 -57 -45 -48 -43 -68 -54 -68 -37 0 6 110 119 118 121 2 1
30 -22 63 -50z m-1348 6 c-3 -9 -8 -14 -10 -11 -3 3 -2 9 2 15 9 16 15 13 8
-4z m-1843 -64 c0 -6 -33 -34 -72 -64 -40 -30 -89 -70 -108 -89 -19 -19 -55
-51 -80 -73 l-45 -39 45 48 c53 57 242 225 253 226 4 0 7 -4 7 -9z m3025 -116
c138 -114 149 -123 125 -110 -27 16 -269 206 -282 222 -27 33 27 -6 157 -112z
m-3341 85 c-18 -36 -24 -38 -16 -7 4 18 18 36 29 37 1 0 -5 -13 -13 -30z m114
-7 c0 -25 -1 -26 -14 -8 -11 15 -11 20 -1 27 6 4 13 8 13 8 1 0 2 -12 2 -27z
m-46 -28 c5 -6 8 -5 8 3 0 7 5 10 11 6 7 -4 -1 -14 -20 -26 -35 -23 -55 -16
-46 15 5 17 4 19 -4 7 -8 -12 -10 -11 -9 6 2 19 5 20 28 11 14 -7 28 -16 32
-22z m-125 -12 c-3 -10 -5 -4 -5 12 0 17 2 24 5 18 2 -7 2 -21 0 -30z m3457
15 c-5 -8 -2 -9 9 -5 10 4 16 2 14 -6 -1 -7 4 -11 11 -9 6 1 12 -6 12 -15 0
-15 2 -16 10 -3 11 17 13 10 4 -14 -5 -12 -12 -9 -40 16 -28 26 -37 48 -18 48
3 0 2 -5 -2 -12z m-1470 -24 c9 -24 2 -26 -12 -4 -7 11 -8 20 -3 20 5 0 12 -7
15 -16z m-3244 -11 c50 -34 62 -53 34 -53 -33 0 -155 -351 -180 -520 -8 -54
-14 -74 -31 -93 -10 -11 -13 -17 -6 -14 10 6 11 1 4 -32 -1 -2 -7 2 -14 8 -11
9 -14 5 -15 -19 0 -16 -6 -37 -12 -47 -32 -53 40 337 101 547 24 83 82 240 88
240 4 0 18 -8 31 -17z m1293 -17 c-3 -5 -1 -6 5 -2 6 4 9 13 5 21 -4 11 -1 13
11 9 21 -8 20 -20 -1 -33 -10 -6 -13 -11 -7 -11 5 0 15 5 22 12 6 6 14 9 17 6
3 -3 -1 -12 -9 -21 -8 -8 -12 -19 -8 -23 4 -5 -5 2 -20 15 -15 13 -25 28 -22
32 3 5 0 9 -6 9 -6 0 -8 5 -4 11 4 8 9 7 15 -2 4 -7 5 -17 2 -23z m4889 -27
c47 -135 120 -423 143 -564 23 -136 23 -147 5 -152 -10 -3 -11 -2 -3 4 17 12
5 57 -19 72 -18 11 -20 11 -15 -3 3 -8 2 -18 -3 -21 -4 -3 -7 7 -5 22 1 16 -2
32 -9 36 -6 5 -2 7 11 4 13 -3 26 -1 29 4 3 5 2 9 -3 8 -36 -6 -42 2 -48 69
-12 122 -60 287 -138 476 l-25 59 -15 -29 -16 -29 -1 26 c0 19 10 33 38 52 20
14 41 25 46 23 5 -1 18 -27 28 -57z m-2973 -3 c29 -47 26 -58 -4 -14 -14 20
-25 39 -25 42 0 13 10 4 29 -28z m1630 17 c-22 -28 -32 -33 -46 -21 -20 17
-15 26 12 23 14 -1 28 2 31 6 3 5 8 9 11 9 3 0 -1 -8 -8 -17z m-3989 -3 c-8
-5 -19 -10 -25 -10 -5 0 -3 5 5 10 8 5 20 10 25 10 6 0 3 -5 -5 -10z m3293
-119 c-4 -6 -113 91 -113 102 0 6 26 -14 58 -44 32 -30 57 -56 55 -58z m38
-28 c13 -16 12 -17 -3 -4 -10 7 -18 15 -18 17 0 8 8 3 21 -13z m-921 -28 c11
-13 10 -14 -4 -9 -9 3 -16 10 -16 15 0 13 6 11 20 -6z m1471 -32 c13 -16 12
-17 -3 -4 -17 13 -22 21 -14 21 2 0 10 -8 17 -17z m-106 -193 c10 -11 16 -20
13 -20 -3 0 -13 9 -23 20 -10 11 -16 20 -13 20 3 0 13 -9 23 -20z"/>
<path d="M4388 8723 c7 -3 16 -2 19 1 4 3 -2 6 -13 5 -11 0 -14 -3 -6 -6z"/>
<path d="M5708 8623 c7 -3 16 -2 19 1 4 3 -2 6 -13 5 -11 0 -14 -3 -6 -6z"/>
<path d="M4965 8580 c-19 -8 -19 -9 3 -9 12 -1 22 4 22 9 0 6 -1 10 -2 9 -2 0
-12 -4 -23 -9z"/>
<path d="M4918 8563 c7 -3 16 -2 19 1 4 3 -2 6 -13 5 -11 0 -14 -3 -6 -6z"/>
<path d="M5118 8433 c7 -3 16 -2 19 1 4 3 -2 6 -13 5 -11 0 -14 -3 -6 -6z"/>
<path d="M7001 7934 c0 -11 3 -14 6 -6 3 7 2 16 -1 19 -3 4 -6 -2 -5 -13z"/>
<path d="M5870 8270 c-9 -6 -10 -10 -3 -10 6 0 15 5 18 10 8 12 4 12 -15 0z"/>
<path d="M5767 8074 c-11 -11 3 -24 18 -18 8 4 12 10 9 15 -6 11 -18 12 -27 3z"/>
<path d="M4685 7980 c-3 -5 3 -10 14 -10 12 0 21 5 21 10 0 6 -6 10 -14 10 -8
0 -18 -4 -21 -10z"/>
<path d="M4606 7925 c3 -7 -2 -15 -13 -18 -10 -3 -4 -5 14 -6 24 -1 31 3 27
13 -3 8 -12 17 -19 20 -9 3 -12 0 -9 -9z"/>
<path d="M4345 7800 c-3 -5 -2 -10 4 -10 5 0 13 5 16 10 3 6 2 10 -4 10 -5 0
-13 -4 -16 -10z"/>
<path d="M5168 6843 c7 -3 16 -2 19 1 4 3 -2 6 -13 5 -11 0 -14 -3 -6 -6z"/>
<path d="M5048 6813 c7 -3 16 -2 19 1 4 3 -2 6 -13 5 -11 0 -14 -3 -6 -6z"/>
<path d="M4460 6736 c0 -2 6 -9 13 -15 10 -8 14 -7 14 4 0 8 -6 15 -14 15 -7
0 -13 -2 -13 -4z"/>
<path d="M4395 6700 c-7 -12 19 -24 37 -17 7 3 2 6 -12 6 -20 1 -22 3 -10 11
9 6 10 10 3 10 -6 0 -15 -5 -18 -10z"/>
<path d="M4479 6334 c17 -13 25 -14 34 -5 9 9 8 11 -4 6 -10 -4 -20 -2 -24 4
-3 6 -11 11 -18 11 -6 0 -1 -7 12 -16z"/>
<path d="M5788 6323 c6 -2 18 -2 25 0 6 3 1 5 -13 5 -14 0 -19 -2 -12 -5z"/>
<path d="M6701 6117 c-13 -21 -12 -21 5 -5 10 10 16 20 13 22 -3 3 -11 -5 -18
-17z"/>
<path d="M3800 6010 c0 -5 5 -10 11 -10 5 0 7 5 4 10 -3 6 -8 10 -11 10 -2 0
-4 -4 -4 -10z"/>
<path d="M6720 5980 c0 -11 4 -20 9 -20 5 0 7 9 4 20 -3 11 -7 20 -9 20 -2 0
-4 -9 -4 -20z"/>
<path d="M6731 5764 c0 -11 3 -14 6 -6 3 7 2 16 -1 19 -3 4 -6 -2 -5 -13z"/>
<path d="M4990 5146 c0 -2 7 -7 16 -10 8 -3 12 -2 9 4 -6 10 -25 14 -25 6z"/>
<path d="M5033 5144 c3 -3 0 -12 -6 -19 -10 -10 -16 -10 -32 1 -40 28 -105 15
-105 -21 0 -20 6 -24 50 -30 28 -4 50 -10 50 -15 0 -4 9 -10 20 -13 11 -3 20
0 20 6 0 8 3 7 9 -1 5 -9 21 -12 42 -9 19 2 26 2 16 0 -25 -6 -11 -23 20 -23
19 0 24 4 19 16 -4 10 -2 13 6 8 6 -4 17 1 23 10 11 14 14 14 18 2 9 -22 87
-14 125 13 27 19 30 25 21 42 -12 22 -17 25 -74 33 -22 3 -34 2 -27 -3 10 -6
6 -13 -15 -26 -24 -16 -26 -16 -14 -2 11 14 11 18 -3 23 -25 9 -31 -2 -17 -33
l12 -28 -20 25 c-11 14 -23 22 -26 18 -4 -4 -22 2 -41 13 -32 17 -86 27 -71
13z"/>
<path d="M4560 4656 c0 -21 76 -41 210 -55 58 -7 148 -18 200 -26 110 -18 175
-19 251 -5 30 5 97 14 149 19 224 24 309 46 282 73 -15 15 -205 -12 -192 -28
17 -20 -252 -30 -550 -21 -94 3 -125 8 -125 17 0 18 -33 26 -138 35 -75 6 -87
5 -87 -9z"/>
<path d="M5075 4399 c-42 -5 -38 -6 30 -6 44 -1 91 3 105 7 29 10 -50 9 -135
-1z"/>
<path d="M7245 5770 c-4 -12 -5 -24 -2 -27 3 -2 8 5 12 17 4 12 5 24 2 27 -3
2 -8 -5 -12 -17z"/>
<path d="M3080 5330 c32 -31 40 -36 40 -22 0 14 -40 52 -56 52 -10 0 -4 -10
16 -30z"/>
<path d="M3203 5285 c0 -8 4 -12 9 -9 5 3 6 10 3 15 -9 13 -12 11 -12 -6z"/>
<path d="M5871 3604 c0 -11 3 -14 6 -6 3 7 2 16 -1 19 -3 4 -6 -2 -5 -13z"/>
<path d="M5882 3490 c0 -14 2 -19 5 -12 2 6 2 18 0 25 -3 6 -5 1 -5 -13z"/>
<path d="M5893 3415 c0 -22 2 -30 4 -17 2 12 2 30 0 40 -3 9 -5 -1 -4 -23z"/>
<path d="M4317 3366 c-8 -21 5 -27 26 -11 12 8 14 15 8 20 -6 3 -11 0 -11 -7
0 -11 -2 -10 -9 0 -7 11 -9 11 -14 -2z"/>
<path d="M5760 3210 c-2 -3 -4 -15 -5 -27 -3 -26 13 -31 21 -8 4 8 11 12 17 8
6 -3 7 -1 3 6 -4 6 -11 9 -16 6 -4 -3 -11 1 -13 7 -3 7 -6 11 -7 8z"/>
<path d="M5721 3154 c0 -11 3 -14 6 -6 3 7 2 16 -1 19 -3 4 -6 -2 -5 -13z"/>
<path d="M4515 3149 c-8 -13 -11 -11 47 -37 58 -27 70 -28 39 -4 -13 9 -32 25
-42 35 -22 20 -35 22 -44 6z"/>
<path d="M7498 2554 c13 -9 21 -22 18 -30 -3 -8 0 -11 10 -7 12 4 12 8 2 22
-16 20 -30 31 -43 31 -5 0 1 -7 13 -16z"/>
<path d="M7430 2501 c0 -6 4 -13 10 -16 6 -3 7 1 4 9 -7 18 -14 21 -14 7z"/>
<path d="M7479 2463 c-13 -16 -12 -17 4 -4 16 13 21 21 13 21 -2 0 -10 -8 -17
-17z"/>
<path d="M7501 2438 c-14 -23 -14 -23 8 -4 22 20 25 26 13 26 -4 0 -13 -10
-21 -22z"/>
<path d="M7648 2373 c-48 -40 -60 -53 -51 -53 4 0 20 11 35 24 14 14 30 22 34
18 5 -4 6 -3 2 2 -4 5 0 15 10 22 9 7 14 14 10 14 -3 0 -21 -12 -40 -27z"/>
<path d="M7369 2343 c-13 -16 -12 -17 4 -4 9 7 17 15 17 17 0 8 -8 3 -21 -13z"/>
<path d="M7256 2305 c-11 -8 -15 -15 -9 -15 6 0 16 7 23 15 16 19 11 19 -14 0z"/>
<path d="M7209 2293 c-13 -16 -12 -17 4 -4 16 13 21 21 13 21 -2 0 -10 -8 -17
-17z"/>
<path d="M7400 2299 c0 -5 5 -7 10 -4 6 3 10 8 10 11 0 2 -4 4 -10 4 -5 0 -10
-5 -10 -11z"/>
<path d="M7561 2296 c-10 -11 -9 -14 1 -12 14 2 23 15 15 22 -2 2 -10 -2 -16
-10z"/>
<path d="M7519 2253 c-13 -16 -12 -17 4 -4 9 7 17 15 17 17 0 8 -8 3 -21 -13z"/>
<path d="M7219 2233 c-13 -16 -12 -17 4 -4 16 13 21 21 13 21 -2 0 -10 -8 -17
-17z"/>
<path d="M7169 2193 c-13 -16 -12 -17 4 -4 16 13 21 21 13 21 -2 0 -10 -8 -17
-17z"/>
<path d="M7133 2113 c0 -9 4 -10 14 -2 7 6 13 12 13 14 0 1 -6 2 -13 2 -8 0
-14 -6 -14 -14z"/>
<path d="M2780 2495 c7 -8 17 -15 22 -15 5 0 3 7 -6 15 -8 8 -18 15 -22 15 -3
0 -1 -7 6 -15z"/>
<path d="M2810 2416 c0 -2 7 -7 16 -10 8 -3 12 -2 9 4 -6 10 -25 14 -25 6z"/>
<path d="M2690 2394 c0 -10 6 -14 14 -11 16 6 40 -16 29 -26 -3 -4 -1 -7 5 -7
19 0 14 20 -10 41 -28 23 -38 24 -38 3z"/>
<path d="M2796 2397 c3 -10 9 -15 12 -12 3 3 0 11 -7 18 -10 9 -11 8 -5 -6z"/>
<path d="M2790 2359 c0 -5 5 -7 10 -4 6 3 10 8 10 11 0 2 -4 4 -10 4 -5 0 -10
-5 -10 -11z"/>
<path d="M2780 2310 c0 -5 5 -10 11 -10 5 0 7 5 4 10 -3 6 -8 10 -11 10 -2 0
-4 -4 -4 -10z"/>
<path d="M2885 2300 c3 -5 8 -10 11 -10 2 0 4 5 4 10 0 6 -5 10 -11 10 -5 0
-7 -4 -4 -10z"/>
<path d="M2970 2300 c8 -5 20 -10 25 -10 6 0 3 5 -5 10 -8 5 -19 10 -25 10 -5
0 -3 -5 5 -10z"/>
<path d="M2936 2291 c-3 -5 1 -11 9 -14 9 -4 12 -1 8 9 -6 16 -10 17 -17 5z"/>
<path d="M3010 2276 c0 -2 7 -7 16 -10 8 -3 12 -2 9 4 -6 10 -25 14 -25 6z"/>
<path d="M2665 2210 c-3 -5 -2 -10 4 -10 5 0 13 5 16 10 3 6 2 10 -4 10 -5 0
-13 -4 -16 -10z"/>
<path d="M2990 2211 c0 -5 7 -12 16 -15 8 -3 13 -10 10 -14 -3 -5 2 -9 10 -9
11 0 9 6 -8 24 -24 25 -28 27 -28 14z"/>
<path d="M3053 2186 c0 -15 22 -15 34 0 4 5 4 6 -1 2 -5 -4 -14 -3 -21 2 -8 7
-12 5 -12 -4z"/>
<path d="M3141 2194 c3 -21 -2 -28 -11 -14 -5 8 -10 10 -10 4 0 -6 7 -17 16
-24 8 -8 14 -9 13 -4 -4 23 3 26 21 9 11 -10 22 -16 24 -14 2 2 -10 15 -26 28
-16 13 -28 19 -27 15z"/>
<path d="M3095 2119 c-4 -6 -5 -12 -2 -15 2 -3 7 2 10 11 7 17 1 20 -8 4z"/>
<path d="M3166 2098 c4 -5 9 -7 12 -4 3 3 15 -2 26 -11 21 -18 21 -18 3 3 -16
20 -52 30 -41 12z"/>
<path d="M1868 1163 c7 -3 16 -2 19 1 4 3 -2 6 -13 5 -11 0 -14 -3 -6 -6z"/>
<path d="M5160 9380 c0 -5 15 -10 33 -10 24 0 28 3 17 10 -20 13 -50 13 -50 0z"/>
<path d="M5268 9353 c7 -3 16 -2 19 1 4 3 -2 6 -13 5 -11 0 -14 -3 -6 -6z"/>
<path d="M6070 9100 c8 -5 20 -10 25 -10 6 0 3 5 -5 10 -8 5 -19 10 -25 10 -5
0 -3 -5 5 -10z"/>
<path d="M5488 8853 c6 -2 18 -2 25 0 6 3 1 5 -13 5 -14 0 -19 -2 -12 -5z"/>
<path d="M7530 8622 c-23 -7 -149 -58 -215 -87 l-60 -26 74 5 c50 3 90 13 126
30 67 33 126 95 75 78z"/>
</g>
</svg>
