<?xml version="1.0" encoding="UTF-8"?>
<svg version="1.1" xmlns="http://www.w3.org/2000/svg" width="512" height="512">
<path d="M0 0 C28.38 0 56.76 0 86 0 C86 9.24 86 18.48 86 28 C95.24 28 104.48 28 114 28 C114 37.24 114 46.48 114 56 C123.24 56 132.48 56 142 56 C142 65.24 142 74.48 142 84 C151.24 84 160.48 84 170 84 C170 74.76 170 65.52 170 56 C179.24 56 188.48 56 198 56 C198 46.76 198 37.52 198 28 C207.24 28 216.48 28 226 28 C226 18.76 226 9.52 226 0 C254.38 0 282.76 0 312 0 C312 9.24 312 18.48 312 28 C321.24 28 330.48 28 340 28 C340 37.24 340 46.48 340 56 C349.57 56 359.14 56 369 56 C369 93.62 369 131.24 369 170 C359.43 170 349.86 170 340 170 C340 188.81 340 207.62 340 227 C330.76 227 321.52 227 312 227 C312 236.24 312 245.48 312 255 C302.76 255 293.52 255 284 255 C284 264.24 284 273.48 284 283 C274.43 283 264.86 283 255 283 C255 292.57 255 302.14 255 312 C245.76 312 236.52 312 227 312 C227 321.24 227 330.48 227 340 C217.76 340 208.52 340 199 340 C199 349.24 199 358.48 199 368 C189.76 368 180.52 368 171 368 C171 377.24 171 386.48 171 396 C161.1 396 151.2 396 141 396 C141 386.76 141 377.52 141 368 C131.76 368 122.52 368 113 368 C113 358.76 113 349.52 113 340 C103.76 340 94.52 340 85 340 C85 330.76 85 321.52 85 312 C75.76 312 66.52 312 57 312 C57 302.43 57 292.86 57 283 C47.43 283 37.86 283 28 283 C28 273.76 28 264.52 28 255 C18.76 255 9.52 255 0 255 C0 245.76 0 236.52 0 227 C-9.24 227 -18.48 227 -28 227 C-28 208.19 -28 189.38 -28 170 C-37.57 170 -47.14 170 -57 170 C-57 132.38 -57 94.76 -57 56 C-47.43 56 -37.86 56 -28 56 C-28 46.76 -28 37.52 -28 28 C-18.76 28 -9.52 28 0 28 C0 18.76 0 9.52 0 0 Z " fill="#888888" transform="translate(100,58)"/>
<path d="M0 0 C28.38 0 56.76 0 86 0 C86 9.24 86 18.48 86 28 C95.24 28 104.48 28 114 28 C114 37.24 114 46.48 114 56 C123.24 56 132.48 56 142 56 C142 65.24 142 74.48 142 84 C151.24 84 160.48 84 170 84 C170 74.76 170 65.52 170 56 C179.24 56 188.48 56 198 56 C198 46.76 198 37.52 198 28 C207.24 28 216.48 28 226 28 C226 18.76 226 9.52 226 0 C254.38 0 282.76 0 312 0 C312 9.24 312 18.48 312 28 C321.24 28 330.48 28 340 28 C340 37.24 340 46.48 340 56 C349.57 56 359.14 56 369 56 C369 93.62 369 131.24 369 170 C359.43 170 349.86 170 340 170 C340 188.81 340 207.62 340 227 C330.76 227 321.52 227 312 227 C312 236.24 312 245.48 312 255 C302.76 255 293.52 255 284 255 C284 264.24 284 273.48 284 283 C274.43 283 264.86 283 255 283 C255 273.43 255 263.86 255 254 C264.24 254 273.48 254 283 254 C283 244.76 283 235.52 283 226 C292.24 226 301.48 226 311 226 C311 207.19 311 188.38 311 169 C320.24 169 329.48 169 339 169 C339 150.52 339 132.04 339 113 C330.09 113 321.18 113 312 113 C312 103.76 312 94.52 312 85 C302.43 85 292.86 85 283 85 C283 94.24 283 103.48 283 113 C273.76 113 264.52 113 255 113 C255 103.76 255 94.52 255 85 C245.43 85 235.86 85 226 85 C226 94.24 226 103.48 226 113 C216.76 113 207.52 113 198 113 C198 122.24 198 131.48 198 141 C188.76 141 179.52 141 170 141 C170 131.76 170 122.52 170 113 C160.76 113 151.52 113 142 113 C142 103.76 142 94.52 142 85 C132.43 85 122.86 85 113 85 C113 75.76 113 66.52 113 57 C103.76 57 94.52 57 85 57 C85 47.76 85 38.52 85 29 C57.28 29 29.56 29 1 29 C1 38.24 1 47.48 1 57 C0.94486547 61.99671379 0.88238462 66.98901377 0.78125 71.984375 C0.75905396 73.18773499 0.73685791 74.39109497 0.71398926 75.63092041 C0.64508629 79.33733099 0.57264463 83.0436611 0.5 86.75 C0.45158333 89.320308 0.40340539 91.8906205 0.35546875 94.4609375 C0.24014513 100.64069294 0.11999366 106.8203266 0 113 C-8.91 113 -17.82 113 -27 113 C-27 131.48 -27 149.96 -27 169 C-17.76 169 -8.52 169 1 169 C1 187.81 1 206.62 1 226 C10.24 226 19.48 226 29 226 C29 235.24 29 244.48 29 254 C38.24 254 47.48 254 57 254 C57 263.57 57 273.14 57 283 C47.43 283 37.86 283 28 283 C28 273.76 28 264.52 28 255 C18.76 255 9.52 255 0 255 C0 245.76 0 236.52 0 227 C-9.24 227 -18.48 227 -28 227 C-28 208.19 -28 189.38 -28 170 C-37.57 170 -47.14 170 -57 170 C-57 132.38 -57 94.76 -57 56 C-47.43 56 -37.86 56 -28 56 C-28 46.76 -28 37.52 -28 28 C-18.76 28 -9.52 28 0 28 C0 18.76 0 9.52 0 0 Z " fill="#000000" transform="translate(100,58)"/>
<path d="M0 0 C27.72 0 55.44 0 84 0 C84 9.24 84 18.48 84 28 C93.24 28 102.48 28 112 28 C112 37.24 112 46.48 112 56 C121.57 56 131.14 56 141 56 C141 65.24 141 74.48 141 84 C150.24 84 159.48 84 169 84 C169 93.24 169 102.48 169 112 C178.24 112 187.48 112 197 112 C197 102.76 197 93.52 197 84 C206.24 84 215.48 84 225 84 C225 74.76 225 65.52 225 56 C234.57 56 244.14 56 254 56 C254 65.24 254 74.48 254 84 C263.24 84 272.48 84 282 84 C282 74.76 282 65.52 282 56 C291.57 56 301.14 56 311 56 C311 65.24 311 74.48 311 84 C319.91 84 328.82 84 338 84 C338 102.48 338 120.96 338 140 C328.76 140 319.52 140 310 140 C310 149.57 310 159.14 310 169 C300.76 169 291.52 169 282 169 C282 159.76 282 150.52 282 141 C272.76 141 263.52 141 254 141 C254 150.24 254 159.48 254 169 C244.76 169 235.52 169 226 169 C226 159.76 226 150.52 226 141 C216.76 141 207.52 141 198 141 C198 150.24 198 159.48 198 169 C188.43 169 178.86 169 169 169 C169 159.76 169 150.52 169 141 C159.76 141 150.52 141 141 141 C141 150.24 141 159.48 141 169 C131.43 169 121.86 169 112 169 C112 159.76 112 150.52 112 141 C102.76 141 93.52 141 84 141 C84 150.24 84 159.48 84 169 C74.76 169 65.52 169 56 169 C56 159.76 56 150.52 56 141 C46.76 141 37.52 141 28 141 C28 150.24 28 159.48 28 169 C18.76 169 9.52 169 0 169 C0 159.43 0 149.86 0 140 C-9.24 140 -18.48 140 -28 140 C-28 121.52 -28 103.04 -28 84 C-19.09 84 -10.18 84 -1 84 C-1.01160156 80.28234375 -1.02320312 76.5646875 -1.03515625 72.734375 C-1.0430138 69.02701909 -1.04905217 65.3196642 -1.05493164 61.61230469 C-1.05987899 59.0875607 -1.06663842 56.56281944 -1.07543945 54.03808594 C-1.08793702 50.35350866 -1.09332379 46.66897001 -1.09765625 42.984375 C-1.10281754 41.90395935 -1.10797882 40.8235437 -1.11329651 39.71038818 C-1.11419174 26.44691799 -0.47440724 13.28340268 0 0 Z " fill="#505050" transform="translate(101,87)"/>
<path d="M0 0 C9.24 0 18.48 0 28 0 C29 1 29 1 29.11352539 3.59204102 C29.10828857 4.71795654 29.10305176 5.84387207 29.09765625 7.00390625 C29.09515869 8.09775635 29.09266113 9.19160645 29.09008789 10.31860352 C29.08098389 11.71908936 29.07187988 13.1195752 29.0625 14.5625 C29.041875 18.996875 29.02125 23.43125 29 28 C37.91 28 46.82 28 56 28 C56 18.76 56 9.52 56 0 C65.57 0 75.14 0 85 0 C85 9.57 85 19.14 85 29 C94.24 29 103.48 29 113 29 C113 19.43 113 9.86 113 0 C122.57 0 132.14 0 142 0 C142 9.24 142 18.48 142 28 C150.91 28 159.82 28 169 28 C168.96040599 19.15927137 168.96040599 19.15927137 168.90991211 10.31860352 C168.90616577 8.67782837 168.90616577 8.67782837 168.90234375 7.00390625 C168.89710693 5.87799072 168.89187012 4.7520752 168.88647461 3.59204102 C169 1 169 1 170 0 C179.24 0 188.48 0 198 0 C198 19.14 198 38.28 198 58 C188.76 58 179.52 58 170 58 C170 67.24 170 76.48 170 86 C160.76 86 151.52 86 142 86 C142 95.24 142 104.48 142 114 C132.76 114 123.52 114 114 114 C114 123.24 114 132.48 114 142 C104.1 142 94.2 142 84 142 C84 132.76 84 123.52 84 114 C74.76 114 65.52 114 56 114 C56 104.76 56 95.52 56 86 C46.76 86 37.52 86 28 86 C28 76.76 28 67.52 28 58 C18.76 58 9.52 58 0 58 C0 38.86 0 19.72 0 0 Z " fill="#C3C3C3" transform="translate(157,312)"/>
<path d="M0 0 C27.72 0 55.44 0 84 0 C84 9.57 84 19.14 84 29 C93.57 29 103.14 29 113 29 C113 85.1 113 141.2 113 199 C103.76 199 94.52 199 85 199 C85 208.24 85 217.48 85 227 C75.76 227 66.52 227 57 227 C57 236.24 57 245.48 57 255 C47.43 255 37.86 255 28 255 C28 245.43 28 235.86 28 226 C37.24 226 46.48 226 56 226 C56 216.76 56 207.52 56 198 C65.24 198 74.48 198 84 198 C84 179.19 84 160.38 84 141 C93.24 141 102.48 141 112 141 C112 122.52 112 104.04 112 85 C103.09 85 94.18 85 85 85 C85 75.76 85 66.52 85 57 C75.43 57 65.86 57 56 57 C56 66.24 56 75.48 56 85 C46.76 85 37.52 85 28 85 C28 75.76 28 66.52 28 57 C18.43 57 8.86 57 -1 57 C-1 66.24 -1 75.48 -1 85 C-10.24 85 -19.48 85 -29 85 C-29 94.24 -29 103.48 -29 113 C-38.24 113 -47.48 113 -57 113 C-57 94.52 -57 76.04 -57 57 C-47.43 57 -37.86 57 -28 57 C-28 47.76 -28 38.52 -28 29 C-18.76 29 -9.52 29 0 29 C0 19.43 0 9.86 0 0 Z " fill="#323232" transform="translate(327,86)"/>
<path d="M0 0 C28.38 0 56.76 0 86 0 C86 9.24 86 18.48 86 28 C95.24 28 104.48 28 114 28 C114 37.24 114 46.48 114 56 C123.57 56 133.14 56 143 56 C143 93.62 143 131.24 143 170 C133.43 170 123.86 170 114 170 C114 132.71 114 95.42 114 57 C104.43 57 94.86 57 85 57 C85 47.43 85 37.86 85 28 C57.28 28 29.56 28 1 28 C1 37.57 1 47.14 1 57 C-8.24 57 -17.48 57 -27 57 C-27 66.24 -27 75.48 -27 85 C-36.57 85 -46.14 85 -56 85 C-56 94.24 -56 103.48 -56 113 C-65.24 113 -74.48 113 -84 113 C-84 103.76 -84 94.52 -84 85 C-93.24 85 -102.48 85 -112 85 C-112 75.43 -112 65.86 -112 56 C-102.76 56 -93.52 56 -84 56 C-84 65.24 -84 74.48 -84 84 C-74.76 84 -65.52 84 -56 84 C-56 74.76 -56 65.52 -56 56 C-46.76 56 -37.52 56 -28 56 C-28 46.76 -28 37.52 -28 28 C-18.76 28 -9.52 28 0 28 C0 18.76 0 9.52 0 0 Z " fill="#000000" transform="translate(326,58)"/>
<path d="M0 0 C27.72 0 55.44 0 84 0 C84 9.24 84 18.48 84 28 C93.24 28 102.48 28 112 28 C112 37.24 112 46.48 112 56 C121.57 56 131.14 56 141 56 C141 74.48 141 92.96 141 112 C131.76 112 122.52 112 113 112 C113 102.76 113 93.52 113 84 C103.43 84 93.86 84 84 84 C84 74.76 84 65.52 84 56 C74.76 56 65.52 56 56 56 C56 46.43 56 36.86 56 27 C37.52 27 19.04 27 0 27 C0 18.09 0 9.18 0 0 Z " fill="#333333" transform="translate(101,87)"/>
<path d="M0 0 C9.24 0 18.48 0 28 0 C28 9.24 28 18.48 28 28 C37.57 28 47.14 28 57 28 C57 37.24 57 46.48 57 56 C66.24 56 75.48 56 85 56 C85 65.57 85 75.14 85 85 C94.24 85 103.48 85 113 85 C113 75.43 113 65.86 113 56 C122.24 56 131.48 56 141 56 C141 46.76 141 37.52 141 28 C150.57 28 160.14 28 170 28 C170 18.76 170 9.52 170 0 C179.24 0 188.48 0 198 0 C198 9.57 198 19.14 198 29 C188.76 29 179.52 29 170 29 C170 38.24 170 47.48 170 57 C160.76 57 151.52 57 142 57 C142 66.24 142 75.48 142 85 C132.76 85 123.52 85 114 85 C114 94.24 114 103.48 114 113 C104.1 113 94.2 113 84 113 C84 103.76 84 94.52 84 85 C74.76 85 65.52 85 56 85 C56 75.76 56 66.52 56 57 C46.76 57 37.52 57 28 57 C28 47.76 28 38.52 28 29 C18.76 29 9.52 29 0 29 C0 19.43 0 9.86 0 0 Z " fill="#000000" transform="translate(157,341)"/>
<path d="M0 0 C9.24 0 18.48 0 28 0 C28 18.48 28 36.96 28 56 C19.09 56 10.18 56 1 56 C1 74.48 1 92.96 1 112 C10.24 112 19.48 112 29 112 C29 130.81 29 149.62 29 169 C38.24 169 47.48 169 57 169 C57 178.24 57 187.48 57 197 C66.24 197 75.48 197 85 197 C85 206.57 85 216.14 85 226 C75.43 226 65.86 226 56 226 C56 216.76 56 207.52 56 198 C46.76 198 37.52 198 28 198 C28 188.76 28 179.52 28 170 C18.76 170 9.52 170 0 170 C0 113.9 0 57.8 0 0 Z " fill="#313131" transform="translate(72,115)"/>
<path d="M0 0 C9.57 0 19.14 0 29 0 C29 9.24 29 18.48 29 28 C37.91 28 46.82 28 56 28 C55.96040599 19.15927137 55.96040599 19.15927137 55.90991211 10.31860352 C55.90741455 9.22475342 55.90491699 8.13090332 55.90234375 7.00390625 C55.89710693 5.87799072 55.89187012 4.7520752 55.88647461 3.59204102 C56 1 56 1 57 0 C59.07262076 -0.08767112 61.14820294 -0.10695873 63.22265625 -0.09765625 C64.35711182 -0.09515869 65.49156738 -0.09266113 66.66040039 -0.09008789 C68.8394397 -0.07643188 68.8394397 -0.07643188 71.0625 -0.0625 C75.661875 -0.041875 80.26125 -0.02125 85 0 C85 9.57 85 19.14 85 29 C75.76 29 66.52 29 57 29 C57 38.24 57 47.48 57 57 C38.19 57 19.38 57 0 57 C0 38.19 0 19.38 0 0 Z " fill="#898989" transform="translate(270,312)"/>
<path d="M0 0 C4.599375 -0.020625 9.19875 -0.04125 13.9375 -0.0625 C15.39019287 -0.071604 16.84288574 -0.08070801 18.33959961 -0.09008789 C19.47405518 -0.09258545 20.60851074 -0.09508301 21.77734375 -0.09765625 C23.52905884 -0.10551147 23.52905884 -0.10551147 25.31616211 -0.11352539 C28 0 28 0 29 1 C29.08758003 2.99964982 29.10696576 5.0023611 29.09765625 7.00390625 C29.09515869 8.09775635 29.09266113 9.19160645 29.09008789 10.31860352 C29.08098389 11.71908936 29.07187988 13.1195752 29.0625 14.5625 C29.041875 18.996875 29.02125 23.43125 29 28 C37.91 28 46.82 28 56 28 C56 18.76 56 9.52 56 0 C65.57 0 75.14 0 85 0 C85 18.81 85 37.62 85 57 C66.19 57 47.38 57 28 57 C28 47.76 28 38.52 28 29 C18.76 29 9.52 29 0 29 C0 19.43 0 9.86 0 0 Z " fill="#898989" transform="translate(157,312)"/>
<path d="M0 0 C0.99261337 0.00222061 1.98522675 0.00444122 3.00791931 0.00672913 C4.12900589 0.00680466 5.25009247 0.00688019 6.40515137 0.00695801 C8.2348069 0.01469994 8.2348069 0.01469994 10.10142517 0.02259827 C11.96377052 0.02472069 11.96377052 0.02472069 13.86373901 0.02688599 C17.16982383 0.03154861 20.47584039 0.04053955 23.78190613 0.05158997 C27.15338031 0.06180625 30.52486174 0.06643878 33.89634705 0.07142639 C40.51552631 0.08163173 47.13458545 0.10120346 53.75376892 0.12025452 C53.75376892 9.69025452 53.75376892 19.26025452 53.75376892 29.12025452 C44.51376892 29.12025452 35.27376892 29.12025452 25.75376892 29.12025452 C25.75376892 38.36025452 25.75376892 47.60025452 25.75376892 57.12025452 C16.18376892 57.12025452 6.61376892 57.12025452 -3.24623108 57.12025452 C-3.26717712 49.84266991 -3.28721514 42.56519389 -3.29798126 35.28760529 C-3.30327077 31.8988822 -3.31034388 28.51018396 -3.32167053 25.12147522 C-3.33457375 21.23695674 -3.33946032 17.35244855 -3.34388733 13.46791077 C-3.34904861 12.24814041 -3.3542099 11.02837006 -3.35952759 9.77163696 C-3.35960312 8.65055038 -3.35967865 7.52946381 -3.35975647 6.37440491 C-3.36197708 5.38179153 -3.36419769 4.38917816 -3.3664856 3.3664856 C-3.20400099 0.33143972 -3.03504588 0.16248461 0 0 Z " fill="#FBFBFB" transform="translate(103.24623107910156,113.87974548339844)"/>
<path d="M0 0 C9.57 0 19.14 0 29 0 C29 18.48 29 36.96 29 56 C19.43 56 9.86 56 0 56 C0 37.52 0 19.04 0 0 Z " fill="#343434" transform="translate(326,143)"/>
<path d="M0 0 C9.24 0 18.48 0 28 0 C28 18.81 28 37.62 28 57 C18.76 57 9.52 57 0 57 C0 38.19 0 19.38 0 0 Z " fill="#000000" transform="translate(412,228)"/>
<path d="M0 0 C9.24 0 18.48 0 28 0 C28 18.81 28 37.62 28 57 C18.76 57 9.52 57 0 57 C0 38.19 0 19.38 0 0 Z " fill="#000000" transform="translate(72,228)"/>
<path d="M0 0 C9.57 0 19.14 0 29 0 C29 9.24 29 18.48 29 28 C19.43 28 9.86 28 0 28 C0 18.76 0 9.52 0 0 Z " fill="#000000" transform="translate(355,313)"/>
<path d="M0 0 C9.57 0 19.14 0 29 0 C29 9.24 29 18.48 29 28 C19.43 28 9.86 28 0 28 C0 18.76 0 9.52 0 0 Z " fill="#000000" transform="translate(128,313)"/>
<path d="M0 0 C9.57 0 19.14 0 29 0 C29 9.24 29 18.48 29 28 C19.43 28 9.86 28 0 28 C0 18.76 0 9.52 0 0 Z " fill="#333333" transform="translate(100,171)"/>
<path d="M0 0 C9.24 0 18.48 0 28 0 C28 9.24 28 18.48 28 28 C18.76 28 9.52 28 0 28 C0 18.76 0 9.52 0 0 Z " fill="#C3C3C3" transform="translate(327,312)"/>
<path d="M0 0 C9.24 0 18.48 0 28 0 C28 9.24 28 18.48 28 28 C18.76 28 9.52 28 0 28 C0 18.76 0 9.52 0 0 Z " fill="#C3C3C3" transform="translate(270,313)"/>
<path d="M0 0 C9.24 0 18.48 0 28 0 C28 9.24 28 18.48 28 28 C18.76 28 9.52 28 0 28 C0 18.76 0 9.52 0 0 Z " fill="#C3C3C3" transform="translate(214,313)"/>
<path d="M0 0 C9.24 0 18.48 0 28 0 C28 9.24 28 18.48 28 28 C18.76 28 9.52 28 0 28 C0 18.76 0 9.52 0 0 Z " fill="#C3C3C3" transform="translate(157,312)"/>
<path d="M0 0 C9.24 0 18.48 0 28 0 C28 9.24 28 18.48 28 28 C18.76 28 9.52 28 0 28 C0 18.76 0 9.52 0 0 Z " fill="#000000" transform="translate(384,285)"/>
<path d="M0 0 C9.24 0 18.48 0 28 0 C28 9.24 28 18.48 28 28 C18.76 28 9.52 28 0 28 C0 18.76 0 9.52 0 0 Z " fill="#000000" transform="translate(100,285)"/>
<path d="M0 0 C9.24 0 18.48 0 28 0 C28 9.24 28 18.48 28 28 C18.76 28 9.52 28 0 28 C0 18.76 0 9.52 0 0 Z " fill="#6C6C6C" transform="translate(383,256)"/>
<path d="M0 0 C9.24 0 18.48 0 28 0 C28 9.24 28 18.48 28 28 C18.76 28 9.52 28 0 28 C0 18.76 0 9.52 0 0 Z " fill="#6C6C6C" transform="translate(327,256)"/>
<path d="M0 0 C9.24 0 18.48 0 28 0 C28 9.24 28 18.48 28 28 C18.76 28 9.52 28 0 28 C0 18.76 0 9.52 0 0 Z " fill="#6C6C6C" transform="translate(270,256)"/>
<path d="M0 0 C9.24 0 18.48 0 28 0 C28 9.24 28 18.48 28 28 C18.76 28 9.52 28 0 28 C0 18.76 0 9.52 0 0 Z " fill="#6C6C6C" transform="translate(214,256)"/>
<path d="M0 0 C9.24 0 18.48 0 28 0 C28 9.24 28 18.48 28 28 C18.76 28 9.52 28 0 28 C0 18.76 0 9.52 0 0 Z " fill="#6C6C6C" transform="translate(157,256)"/>
<path d="M0 0 C9.24 0 18.48 0 28 0 C28 9.24 28 18.48 28 28 C18.76 28 9.52 28 0 28 C0 18.76 0 9.52 0 0 Z " fill="#6C6C6C" transform="translate(101,256)"/>
<path d="M0 0 C9.24 0 18.48 0 28 0 C28 9.24 28 18.48 28 28 C18.76 28 9.52 28 0 28 C0 18.76 0 9.52 0 0 Z " fill="#6C6C6C" transform="translate(355,228)"/>
<path d="M0 0 C9.24 0 18.48 0 28 0 C28 9.24 28 18.48 28 28 C18.76 28 9.52 28 0 28 C0 18.76 0 9.52 0 0 Z " fill="#6B6B6B" transform="translate(299,228)"/>
<path d="M0 0 C9.24 0 18.48 0 28 0 C28 9.24 28 18.48 28 28 C18.76 28 9.52 28 0 28 C0 18.76 0 9.52 0 0 Z " fill="#6C6C6C" transform="translate(242,228)"/>
<path d="M0 0 C9.24 0 18.48 0 28 0 C28 9.24 28 18.48 28 28 C18.76 28 9.52 28 0 28 C0 18.76 0 9.52 0 0 Z " fill="#6B6B6B" transform="translate(185,228)"/>
<path d="M0 0 C9.24 0 18.48 0 28 0 C28 9.24 28 18.48 28 28 C18.76 28 9.52 28 0 28 C0 18.76 0 9.52 0 0 Z " fill="#6C6C6C" transform="translate(129,228)"/>
<path d="M0 0 C9.24 0 18.48 0 28 0 C28 9.24 28 18.48 28 28 C18.76 28 9.52 28 0 28 C0 18.76 0 9.52 0 0 Z " fill="#333333" transform="translate(383,171)"/>
<path d="M0 0 C9.24 0 18.48 0 28 0 C28 9.24 28 18.48 28 28 C18.76 28 9.52 28 0 28 C0 18.76 0 9.52 0 0 Z " fill="#333333" transform="translate(157,171)"/>
<path d="M0 0 C9.24 0 18.48 0 28 0 C28 9.24 28 18.48 28 28 C18.76 28 9.52 28 0 28 C0 18.76 0 9.52 0 0 Z " fill="#515151" transform="translate(327,143)"/>
<path d="M0 0 C9.24 0 18.48 0 28 0 C28 9.24 28 18.48 28 28 C18.76 28 9.52 28 0 28 C0 18.76 0 9.52 0 0 Z " fill="#333333" transform="translate(129,143)"/>
<path d="M0 0 C8.91 0 17.82 0 27 0 C27 9.24 27 18.48 27 28 C18.09 28 9.18 28 0 28 C0 18.76 0 9.52 0 0 Z " fill="#C4C4C4" transform="translate(299,341)"/>
<path d="M0 0 C8.91 0 17.82 0 27 0 C27 9.24 27 18.48 27 28 C18.09 28 9.18 28 0 28 C0 18.76 0 9.52 0 0 Z " fill="#C4C4C4" transform="translate(186,341)"/>
<path d="M0 0 C9.57 0 19.14 0 29 0 C29 9.24 29 18.48 29 28 C37.91 28 46.82 28 56 28 C56 19.09 56 10.18 56 1 C56.33 1 56.66 1 57 1 C57 9.91 57 18.82 57 28 C66.24 28 75.48 28 85 28 C85 28.33 85 28.66 85 29 C75.76 29 66.52 29 57 29 C57 38.24 57 47.48 57 57 C56.67 57 56.34 57 56 57 C56 47.76 56 38.52 56 29 C47.09 29 38.18 29 29 29 C29 38.24 29 47.48 29 57 C28.67 57 28.34 57 28 57 C28 38.52 28 20.04 28 1 C18.76 1 9.52 1 0 1 C0 0.67 0 0.34 0 0 Z " fill="#9C9C9C" transform="translate(270,312)"/>
<path d="M0 0 C9.57 0 19.14 0 29 0 C29 0.33 29 0.66 29 1 C19.76 1 10.52 1 1 1 C1 19.48 1 37.96 1 57 C0.67 57 0.34 57 0 57 C0 47.76 0 38.52 0 29 C-8.91 29 -17.82 29 -27 29 C-27 38.24 -27 47.48 -27 57 C-27.33 57 -27.66 57 -28 57 C-28 47.76 -28 38.52 -28 29 C-37.24 29 -46.48 29 -56 29 C-56 28.67 -56 28.34 -56 28 C-46.76 28 -37.52 28 -28 28 C-28 19.09 -28 10.18 -28 1 C-27.67 1 -27.34 1 -27 1 C-27 9.91 -27 18.82 -27 28 C-18.09 28 -9.18 28 0 28 C0 18.76 0 9.52 0 0 Z " fill="#9A9A9A" transform="translate(213,312)"/>
</svg>
